G04 #@! TF.GenerationSoftware,KiCad,Pcbnew,(5.99.0-11535-gf6cac49802)*
G04 #@! TF.CreationDate,2021-08-06T14:04:52-04:00*
G04 #@! TF.ProjectId,esphome-humitemp,65737068-6f6d-4652-9d68-756d6974656d,1*
G04 #@! TF.SameCoordinates,Original*
G04 #@! TF.FileFunction,Paste,Top*
G04 #@! TF.FilePolarity,Positive*
%FSLAX46Y46*%
G04 Gerber Fmt 4.6, Leading zero omitted, Abs format (unit mm)*
G04 Created by KiCad (PCBNEW (5.99.0-11535-gf6cac49802)) date 2021-08-06 14:04:52*
%MOMM*%
%LPD*%
G01*
G04 APERTURE LIST*
G04 Aperture macros list*
%AMRoundRect*
0 Rectangle with rounded corners*
0 $1 Rounding radius*
0 $2 $3 $4 $5 $6 $7 $8 $9 X,Y pos of 4 corners*
0 Add a 4 corners polygon primitive as box body*
4,1,4,$2,$3,$4,$5,$6,$7,$8,$9,$2,$3,0*
0 Add four circle primitives for the rounded corners*
1,1,$1+$1,$2,$3*
1,1,$1+$1,$4,$5*
1,1,$1+$1,$6,$7*
1,1,$1+$1,$8,$9*
0 Add four rect primitives between the rounded corners*
20,1,$1+$1,$2,$3,$4,$5,0*
20,1,$1+$1,$4,$5,$6,$7,0*
20,1,$1+$1,$6,$7,$8,$9,0*
20,1,$1+$1,$8,$9,$2,$3,0*%
%AMFreePoly0*
4,1,6,0.450000,-0.800000,-0.450000,-0.800000,-0.450000,0.530000,-0.180000,0.800000,0.450000,0.800000,0.450000,-0.800000,0.450000,-0.800000,$1*%
G04 Aperture macros list end*
%ADD10RoundRect,0.250000X-0.450000X0.262500X-0.450000X-0.262500X0.450000X-0.262500X0.450000X0.262500X0*%
%ADD11FreePoly0,180.000000*%
%ADD12R,0.550000X0.250000*%
%ADD13RoundRect,0.250000X-0.475000X0.250000X-0.475000X-0.250000X0.475000X-0.250000X0.475000X0.250000X0*%
%ADD14RoundRect,0.250000X0.450000X-0.262500X0.450000X0.262500X-0.450000X0.262500X-0.450000X-0.262500X0*%
%ADD15RoundRect,0.150000X-0.150000X0.512500X-0.150000X-0.512500X0.150000X-0.512500X0.150000X0.512500X0*%
%ADD16R,2.000000X0.900000*%
%ADD17R,0.900000X2.000000*%
G04 APERTURE END LIST*
D10*
X100500000Y-53425000D03*
X100500000Y-55250000D03*
D11*
X101000000Y-76750000D03*
D12*
X102175000Y-77500000D03*
X102175000Y-77000000D03*
X102175000Y-76500000D03*
X102175000Y-76000000D03*
X99825000Y-76000000D03*
X99825000Y-76500000D03*
X99825000Y-77000000D03*
X99825000Y-77500000D03*
D13*
X129250000Y-62050000D03*
X129250000Y-63950000D03*
D14*
X129000000Y-55250000D03*
X129000000Y-53425000D03*
D13*
X104750000Y-52862500D03*
X104750000Y-54762500D03*
X124000000Y-73800000D03*
X124000000Y-75700000D03*
D14*
X129000000Y-58912500D03*
X129000000Y-57087500D03*
D15*
X129200000Y-73362500D03*
X128250000Y-73362500D03*
X127300000Y-73362500D03*
X127300000Y-75637500D03*
X129200000Y-75637500D03*
D16*
X108500000Y-51995000D03*
X108500000Y-53265000D03*
X108500000Y-54535000D03*
X108500000Y-55805000D03*
X108500000Y-57075000D03*
X108500000Y-58345000D03*
X108500000Y-59615000D03*
X108500000Y-60885000D03*
X108500000Y-62155000D03*
X108500000Y-63425000D03*
X108500000Y-64695000D03*
X108500000Y-65965000D03*
X108500000Y-67235000D03*
X108500000Y-68505000D03*
D17*
X111285000Y-69505000D03*
X112555000Y-69505000D03*
X113825000Y-69505000D03*
X115095000Y-69505000D03*
X116365000Y-69505000D03*
X117635000Y-69505000D03*
X118905000Y-69505000D03*
X120175000Y-69505000D03*
X121445000Y-69505000D03*
X122715000Y-69505000D03*
D16*
X125500000Y-68505000D03*
X125500000Y-67235000D03*
X125500000Y-65965000D03*
X125500000Y-64695000D03*
X125500000Y-63425000D03*
X125500000Y-62155000D03*
X125500000Y-60885000D03*
X125500000Y-59615000D03*
X125500000Y-58345000D03*
X125500000Y-57075000D03*
X125500000Y-55805000D03*
X125500000Y-54535000D03*
X125500000Y-53265000D03*
X125500000Y-51995000D03*
M02*
