M48
; DRILL file {KiCad (5.99.0-11535-gf6cac49802)} date Fri Aug  6 14:04:54 2021
; FORMAT={-:-/ absolute / inch / decimal}
; #@! TF.CreationDate,2021-08-06T14:04:54-04:00
; #@! TF.GenerationSoftware,Kicad,Pcbnew,(5.99.0-11535-gf6cac49802)
; #@! TF.FileFunction,Plated,1,2,PTH
FMAT,2
INCH
; #@! TA.AperFunction,Plated,PTH,ViaDrill
T1C0.0118
; #@! TA.AperFunction,Plated,PTH,ComponentDrill
T2C0.0374
; #@! TA.AperFunction,Plated,PTH,ViaDrill
T3C0.0394
; #@! TA.AperFunction,Plated,PTH,ComponentDrill
T4C0.0394
; #@! TA.AperFunction,Plated,PTH,ComponentDrill
T5C0.0413
; #@! TA.AperFunction,Plated,PTH,ComponentDrill
T6C0.0906
%
G90
G05
T1
X3.9449Y-2.9449
X4.0453Y-2.6654
X4.0709Y-2.2441
X4.0709Y-2.3307
X4.0709Y-3.063
X4.0945Y-3.0
X4.1142Y-2.8425
X4.1417Y-2.4488
X4.1654Y-2.2441
X4.1811Y-2.8346
X4.2126Y-3.1024
X4.3307Y-2.81
X4.3622Y-2.1024
X4.3622Y-2.6614
X4.4252Y-2.2047
X4.4252Y-2.6535
X4.4252Y-2.8031
X4.4331Y-2.2677
X4.5197Y-2.8976
X4.5886Y-2.1496
X4.6063Y-2.8583
X4.6535Y-2.8189
X4.689Y-2.1496
X4.7165Y-2.8268
X4.7323Y-2.315
X4.748Y-2.8661
X4.7874Y-2.4488
X4.8661Y-2.2047
X4.8661Y-2.252
X4.9449Y-2.811
X5.0236Y-2.4252
X5.063Y-2.8189
X5.0846Y-2.6693
X5.1575Y-2.1339
X5.1732Y-2.4882
X5.1732Y-2.5669
T2
X3.9366Y-2.3917
X3.9366Y-2.4902
X3.9366Y-2.5689
X3.9366Y-2.6673
T3
X3.874Y-2.9213
X3.874Y-2.9764
X3.874Y-3.0315
X3.874Y-3.0866
X3.9213Y-2.8819
X3.9764Y-2.8819
X4.0276Y-3.1102
X4.0315Y-2.8819
X4.0866Y-3.1102
X4.1102Y-2.9055
X4.1142Y-3.0669
X4.5295Y-2.622
X4.5965Y-2.622
X4.6594Y-2.622
X4.811Y-2.9213
X4.811Y-2.9764
X4.811Y-3.0315
X4.811Y-3.0866
X4.874Y-3.0866
X4.937Y-3.0866
X5.0Y-3.0866
X5.063Y-3.0866
X5.1043Y-2.7402
X5.1043Y-2.7953
X5.126Y-3.0866
X5.1654Y-2.7402
X5.1654Y-2.7953
X5.1654Y-2.8504
X5.2283Y-2.7402
X5.2283Y-2.7953
X5.2283Y-2.8504
T4
X4.2067Y-3.0157
X4.3067Y-3.0157
X4.4067Y-3.0157
X4.5067Y-3.0157
X4.6067Y-3.0157
X4.7067Y-3.0157
X5.2544Y-2.3954
X5.2544Y-2.4939
X5.2544Y-2.5726
X5.2544Y-2.671
T6
X3.8299Y-2.2709
X3.8299Y-2.7882
T5
G00X5.3066Y-2.3088
M15
G01X5.3676Y-2.3088
M16
G05
G00X5.3066Y-2.7576
M15
G01X5.3676Y-2.7576
M16
G05
T0
M30
