G04 #@! TF.GenerationSoftware,KiCad,Pcbnew,(5.99.0-11535-gf6cac49802)*
G04 #@! TF.CreationDate,2021-08-06T14:04:52-04:00*
G04 #@! TF.ProjectId,esphome-humitemp,65737068-6f6d-4652-9d68-756d6974656d,1*
G04 #@! TF.SameCoordinates,Original*
G04 #@! TF.FileFunction,Copper,L2,Bot*
G04 #@! TF.FilePolarity,Positive*
%FSLAX46Y46*%
G04 Gerber Fmt 4.6, Leading zero omitted, Abs format (unit mm)*
G04 Created by KiCad (PCBNEW (5.99.0-11535-gf6cac49802)) date 2021-08-06 14:04:52*
%MOMM*%
%LPD*%
G01*
G04 APERTURE LIST*
G04 #@! TA.AperFunction,ComponentPad*
%ADD10R,1.700000X1.700000*%
G04 #@! TD*
G04 #@! TA.AperFunction,ComponentPad*
%ADD11O,1.700000X1.700000*%
G04 #@! TD*
G04 #@! TA.AperFunction,ComponentPad*
%ADD12R,1.500000X1.600000*%
G04 #@! TD*
G04 #@! TA.AperFunction,ComponentPad*
%ADD13C,1.600000*%
G04 #@! TD*
G04 #@! TA.AperFunction,ComponentPad*
%ADD14C,3.000000*%
G04 #@! TD*
G04 #@! TA.AperFunction,ComponentPad*
%ADD15R,1.508000X1.508000*%
G04 #@! TD*
G04 #@! TA.AperFunction,ComponentPad*
%ADD16C,1.508000*%
G04 #@! TD*
G04 #@! TA.AperFunction,ComponentPad*
%ADD17O,3.150000X1.575000*%
G04 #@! TD*
G04 #@! TA.AperFunction,ViaPad*
%ADD18C,0.600000*%
G04 #@! TD*
G04 #@! TA.AperFunction,ViaPad*
%ADD19C,1.200000*%
G04 #@! TD*
G04 #@! TA.AperFunction,Conductor*
%ADD20C,0.400000*%
G04 #@! TD*
G04 #@! TA.AperFunction,Conductor*
%ADD21C,0.200000*%
G04 #@! TD*
G04 #@! TA.AperFunction,Conductor*
%ADD22C,0.127000*%
G04 #@! TD*
G04 APERTURE END LIST*
D10*
X106850000Y-76600000D03*
D11*
X109390000Y-76600000D03*
X111930000Y-76600000D03*
X114470000Y-76600000D03*
X117010000Y-76600000D03*
X119550000Y-76600000D03*
D12*
X99990000Y-60750000D03*
D13*
X99990000Y-63250000D03*
X99990000Y-65250000D03*
X99990000Y-67750000D03*
D14*
X97280000Y-70820000D03*
X97280000Y-57680000D03*
D15*
X133462500Y-60844250D03*
D16*
X133462500Y-63344250D03*
X133462500Y-65344250D03*
X133462500Y-67844250D03*
D17*
X135562500Y-58644250D03*
X135562500Y-70044250D03*
D18*
X127600000Y-61600000D03*
D19*
X103800000Y-79000000D03*
X102300000Y-79000000D03*
X129650000Y-71000000D03*
X101000000Y-73200000D03*
X98400000Y-74200000D03*
D18*
X129150000Y-67800000D03*
D19*
X132800000Y-69600000D03*
X104500000Y-77900000D03*
X115050000Y-66600000D03*
X102400000Y-73200000D03*
X98400000Y-75600000D03*
D18*
X119100000Y-54600000D03*
X102750000Y-67700000D03*
D19*
X130200000Y-78400000D03*
X125400000Y-78400000D03*
X98400000Y-77000000D03*
D18*
X118200000Y-71600000D03*
D19*
X129650000Y-69600000D03*
X132800000Y-71000000D03*
X131200000Y-72400000D03*
X104400000Y-73800000D03*
X122200000Y-74200000D03*
X99600000Y-73200000D03*
X128600000Y-78400000D03*
X122200000Y-78400000D03*
X98400000Y-78400000D03*
X116750000Y-66600000D03*
X122200000Y-77000000D03*
D18*
X128600000Y-71600000D03*
D19*
X118350000Y-66600000D03*
D18*
X107000000Y-78800000D03*
D19*
X131200000Y-71000000D03*
X122200000Y-75600000D03*
X127000000Y-78400000D03*
X123800000Y-78400000D03*
X132800000Y-72400000D03*
D18*
X116550000Y-54600000D03*
D19*
X131200000Y-69600000D03*
D18*
X110800000Y-53400000D03*
X100200000Y-74800000D03*
X131000000Y-54200000D03*
X120600000Y-72800000D03*
X104500000Y-72200000D03*
X114800000Y-73600000D03*
X110000000Y-71373500D03*
X123600000Y-56000000D03*
X112400000Y-56000000D03*
X110800000Y-67600000D03*
X112400000Y-71200000D03*
X112400000Y-67400000D03*
X112600000Y-57600000D03*
X123600000Y-57200000D03*
X105800000Y-57000000D03*
X117000000Y-72600000D03*
X106200000Y-72000000D03*
X103400000Y-57000000D03*
X125600000Y-71400000D03*
X119800000Y-71800000D03*
X103400000Y-77800000D03*
X105200000Y-62200000D03*
X104000000Y-76200000D03*
X121600000Y-62200000D03*
X103400000Y-59200000D03*
X120200000Y-58800000D03*
X131400000Y-63200000D03*
X131400000Y-65200000D03*
D20*
X127600000Y-61600000D02*
X126750000Y-60750000D01*
X126750000Y-60750000D02*
X99990000Y-60750000D01*
D21*
X112670000Y-74800000D02*
X114470000Y-76600000D01*
D20*
X105900000Y-73600000D02*
X114800000Y-73600000D01*
X119800000Y-73600000D02*
X114800000Y-73600000D01*
X130200000Y-53400000D02*
X131000000Y-54200000D01*
D21*
X100200000Y-74800000D02*
X112670000Y-74800000D01*
D20*
X110800000Y-53400000D02*
X130200000Y-53400000D01*
X120600000Y-72800000D02*
X119800000Y-73600000D01*
X104500000Y-72200000D02*
X105900000Y-73600000D01*
X110000000Y-71373500D02*
X110800000Y-70573500D01*
X112400000Y-56000000D02*
X123600000Y-56000000D01*
X110800000Y-70573500D02*
X110800000Y-67600000D01*
X113000000Y-57200000D02*
X123600000Y-57200000D01*
X112600000Y-57600000D02*
X113000000Y-57200000D01*
X112400000Y-71200000D02*
X112400000Y-67400000D01*
X106200000Y-72000000D02*
X106600000Y-72400000D01*
X103400000Y-57000000D02*
X105800000Y-57000000D01*
X116800000Y-72400000D02*
X117000000Y-72600000D01*
X106600000Y-72400000D02*
X116800000Y-72400000D01*
X125600000Y-71400000D02*
X125200000Y-71800000D01*
X125200000Y-71800000D02*
X119800000Y-71800000D01*
D21*
X103400000Y-76800000D02*
X104000000Y-76200000D01*
X103400000Y-77800000D02*
X103400000Y-76800000D01*
X121600000Y-62200000D02*
X105200000Y-62200000D01*
X103400000Y-59200000D02*
X119800000Y-59200000D01*
X119800000Y-59200000D02*
X120200000Y-58800000D01*
D22*
X131350000Y-63250000D02*
X99990000Y-63250000D01*
X131400000Y-63200000D02*
X131350000Y-63250000D01*
X131400000Y-65200000D02*
X131350000Y-65250000D01*
X131350000Y-65250000D02*
X99990000Y-65250000D01*
G04 #@! TA.AperFunction,Conductor*
G36*
X130905322Y-65842568D02*
G01*
X130913729Y-65848069D01*
X131033159Y-65926222D01*
X131067923Y-65939151D01*
X131124797Y-65981643D01*
X131149670Y-66048140D01*
X131150000Y-66057247D01*
X131150000Y-79366000D01*
X131129998Y-79434121D01*
X131076342Y-79480614D01*
X131024000Y-79492000D01*
X105526000Y-79492000D01*
X105457879Y-79471998D01*
X105411386Y-79418342D01*
X105400000Y-79366000D01*
X105400000Y-77874766D01*
X105420002Y-77806645D01*
X105473658Y-77760152D01*
X105543932Y-77750048D01*
X105608512Y-77779542D01*
X105626826Y-77799200D01*
X105631717Y-77805726D01*
X105644276Y-77818285D01*
X105746351Y-77894786D01*
X105761946Y-77903324D01*
X105882394Y-77948478D01*
X105897649Y-77952105D01*
X105948514Y-77957631D01*
X105955328Y-77958000D01*
X106577885Y-77958000D01*
X106593124Y-77953525D01*
X106594329Y-77952135D01*
X106596000Y-77944452D01*
X106596000Y-76472000D01*
X106616002Y-76403879D01*
X106669658Y-76357386D01*
X106722000Y-76346000D01*
X106978000Y-76346000D01*
X107046121Y-76366002D01*
X107092614Y-76419658D01*
X107104000Y-76472000D01*
X107104000Y-77939884D01*
X107108475Y-77955123D01*
X107109865Y-77956328D01*
X107117548Y-77957999D01*
X107744669Y-77957999D01*
X107751490Y-77957629D01*
X107802352Y-77952105D01*
X107817604Y-77948479D01*
X107938054Y-77903324D01*
X107953649Y-77894786D01*
X108055724Y-77818285D01*
X108068285Y-77805724D01*
X108144786Y-77703649D01*
X108153324Y-77688054D01*
X108194225Y-77578952D01*
X108236867Y-77522188D01*
X108303428Y-77497488D01*
X108372777Y-77512696D01*
X108407444Y-77540684D01*
X108432865Y-77570031D01*
X108432869Y-77570035D01*
X108436250Y-77573938D01*
X108608126Y-77716632D01*
X108801000Y-77829338D01*
X109009692Y-77909030D01*
X109014760Y-77910061D01*
X109014763Y-77910062D01*
X109122017Y-77931883D01*
X109228597Y-77953567D01*
X109233772Y-77953757D01*
X109233774Y-77953757D01*
X109446673Y-77961564D01*
X109446677Y-77961564D01*
X109451837Y-77961753D01*
X109456957Y-77961097D01*
X109456959Y-77961097D01*
X109668288Y-77934025D01*
X109668289Y-77934025D01*
X109673416Y-77933368D01*
X109678366Y-77931883D01*
X109882429Y-77870661D01*
X109882434Y-77870659D01*
X109887384Y-77869174D01*
X110087994Y-77770896D01*
X110269860Y-77641173D01*
X110428096Y-77483489D01*
X110558453Y-77302077D01*
X110559776Y-77303028D01*
X110606645Y-77259857D01*
X110676580Y-77247625D01*
X110742026Y-77275144D01*
X110769875Y-77306994D01*
X110829987Y-77405088D01*
X110976250Y-77573938D01*
X111148126Y-77716632D01*
X111341000Y-77829338D01*
X111549692Y-77909030D01*
X111554760Y-77910061D01*
X111554763Y-77910062D01*
X111662017Y-77931883D01*
X111768597Y-77953567D01*
X111773772Y-77953757D01*
X111773774Y-77953757D01*
X111986673Y-77961564D01*
X111986677Y-77961564D01*
X111991837Y-77961753D01*
X111996957Y-77961097D01*
X111996959Y-77961097D01*
X112208288Y-77934025D01*
X112208289Y-77934025D01*
X112213416Y-77933368D01*
X112218366Y-77931883D01*
X112422429Y-77870661D01*
X112422434Y-77870659D01*
X112427384Y-77869174D01*
X112627994Y-77770896D01*
X112809860Y-77641173D01*
X112968096Y-77483489D01*
X113098453Y-77302077D01*
X113099776Y-77303028D01*
X113146645Y-77259857D01*
X113216580Y-77247625D01*
X113282026Y-77275144D01*
X113309875Y-77306994D01*
X113369987Y-77405088D01*
X113516250Y-77573938D01*
X113688126Y-77716632D01*
X113881000Y-77829338D01*
X114089692Y-77909030D01*
X114094760Y-77910061D01*
X114094763Y-77910062D01*
X114202017Y-77931883D01*
X114308597Y-77953567D01*
X114313772Y-77953757D01*
X114313774Y-77953757D01*
X114526673Y-77961564D01*
X114526677Y-77961564D01*
X114531837Y-77961753D01*
X114536957Y-77961097D01*
X114536959Y-77961097D01*
X114748288Y-77934025D01*
X114748289Y-77934025D01*
X114753416Y-77933368D01*
X114758366Y-77931883D01*
X114962429Y-77870661D01*
X114962434Y-77870659D01*
X114967384Y-77869174D01*
X115167994Y-77770896D01*
X115349860Y-77641173D01*
X115508096Y-77483489D01*
X115638453Y-77302077D01*
X115639776Y-77303028D01*
X115686645Y-77259857D01*
X115756580Y-77247625D01*
X115822026Y-77275144D01*
X115849875Y-77306994D01*
X115909987Y-77405088D01*
X116056250Y-77573938D01*
X116228126Y-77716632D01*
X116421000Y-77829338D01*
X116629692Y-77909030D01*
X116634760Y-77910061D01*
X116634763Y-77910062D01*
X116742017Y-77931883D01*
X116848597Y-77953567D01*
X116853772Y-77953757D01*
X116853774Y-77953757D01*
X117066673Y-77961564D01*
X117066677Y-77961564D01*
X117071837Y-77961753D01*
X117076957Y-77961097D01*
X117076959Y-77961097D01*
X117288288Y-77934025D01*
X117288289Y-77934025D01*
X117293416Y-77933368D01*
X117298366Y-77931883D01*
X117502429Y-77870661D01*
X117502434Y-77870659D01*
X117507384Y-77869174D01*
X117707994Y-77770896D01*
X117889860Y-77641173D01*
X118048096Y-77483489D01*
X118178453Y-77302077D01*
X118179776Y-77303028D01*
X118226645Y-77259857D01*
X118296580Y-77247625D01*
X118362026Y-77275144D01*
X118389875Y-77306994D01*
X118449987Y-77405088D01*
X118596250Y-77573938D01*
X118768126Y-77716632D01*
X118961000Y-77829338D01*
X119169692Y-77909030D01*
X119174760Y-77910061D01*
X119174763Y-77910062D01*
X119282017Y-77931883D01*
X119388597Y-77953567D01*
X119393772Y-77953757D01*
X119393774Y-77953757D01*
X119606673Y-77961564D01*
X119606677Y-77961564D01*
X119611837Y-77961753D01*
X119616957Y-77961097D01*
X119616959Y-77961097D01*
X119828288Y-77934025D01*
X119828289Y-77934025D01*
X119833416Y-77933368D01*
X119838366Y-77931883D01*
X120042429Y-77870661D01*
X120042434Y-77870659D01*
X120047384Y-77869174D01*
X120247994Y-77770896D01*
X120429860Y-77641173D01*
X120588096Y-77483489D01*
X120718453Y-77302077D01*
X120739320Y-77259857D01*
X120815136Y-77106453D01*
X120815137Y-77106451D01*
X120817430Y-77101811D01*
X120882370Y-76888069D01*
X120911529Y-76666590D01*
X120913156Y-76600000D01*
X120894852Y-76377361D01*
X120840431Y-76160702D01*
X120751354Y-75955840D01*
X120630014Y-75768277D01*
X120479670Y-75603051D01*
X120475619Y-75599852D01*
X120475615Y-75599848D01*
X120308414Y-75467800D01*
X120308410Y-75467798D01*
X120304359Y-75464598D01*
X120108789Y-75356638D01*
X120103920Y-75354914D01*
X120103916Y-75354912D01*
X119903087Y-75283795D01*
X119903083Y-75283794D01*
X119898212Y-75282069D01*
X119893119Y-75281162D01*
X119893116Y-75281161D01*
X119683373Y-75243800D01*
X119683367Y-75243799D01*
X119678284Y-75242894D01*
X119604452Y-75241992D01*
X119460081Y-75240228D01*
X119460079Y-75240228D01*
X119454911Y-75240165D01*
X119234091Y-75273955D01*
X119021756Y-75343357D01*
X118823607Y-75446507D01*
X118819474Y-75449610D01*
X118819471Y-75449612D01*
X118678503Y-75555454D01*
X118644965Y-75580635D01*
X118490629Y-75742138D01*
X118383201Y-75899621D01*
X118328293Y-75944621D01*
X118257768Y-75952792D01*
X118194021Y-75921538D01*
X118173324Y-75897054D01*
X118092822Y-75772617D01*
X118092820Y-75772614D01*
X118090014Y-75768277D01*
X117939670Y-75603051D01*
X117935619Y-75599852D01*
X117935615Y-75599848D01*
X117768414Y-75467800D01*
X117768410Y-75467798D01*
X117764359Y-75464598D01*
X117568789Y-75356638D01*
X117563920Y-75354914D01*
X117563916Y-75354912D01*
X117363087Y-75283795D01*
X117363083Y-75283794D01*
X117358212Y-75282069D01*
X117353119Y-75281162D01*
X117353116Y-75281161D01*
X117143373Y-75243800D01*
X117143367Y-75243799D01*
X117138284Y-75242894D01*
X117064452Y-75241992D01*
X116920081Y-75240228D01*
X116920079Y-75240228D01*
X116914911Y-75240165D01*
X116694091Y-75273955D01*
X116481756Y-75343357D01*
X116283607Y-75446507D01*
X116279474Y-75449610D01*
X116279471Y-75449612D01*
X116138503Y-75555454D01*
X116104965Y-75580635D01*
X115950629Y-75742138D01*
X115843201Y-75899621D01*
X115788293Y-75944621D01*
X115717768Y-75952792D01*
X115654021Y-75921538D01*
X115633324Y-75897054D01*
X115552822Y-75772617D01*
X115552820Y-75772614D01*
X115550014Y-75768277D01*
X115399670Y-75603051D01*
X115395619Y-75599852D01*
X115395615Y-75599848D01*
X115228414Y-75467800D01*
X115228410Y-75467798D01*
X115224359Y-75464598D01*
X115028789Y-75356638D01*
X115023920Y-75354914D01*
X115023916Y-75354912D01*
X114823087Y-75283795D01*
X114823083Y-75283794D01*
X114818212Y-75282069D01*
X114813119Y-75281162D01*
X114813116Y-75281161D01*
X114603373Y-75243800D01*
X114603367Y-75243799D01*
X114598284Y-75242894D01*
X114524452Y-75241992D01*
X114380081Y-75240228D01*
X114380079Y-75240228D01*
X114374911Y-75240165D01*
X114227627Y-75262703D01*
X114159200Y-75273173D01*
X114159197Y-75273174D01*
X114154091Y-75273955D01*
X114149176Y-75275562D01*
X114149174Y-75275562D01*
X114114890Y-75286768D01*
X114043927Y-75288921D01*
X113986648Y-75256099D01*
X113254144Y-74523595D01*
X113220118Y-74461283D01*
X113225183Y-74390468D01*
X113267730Y-74333632D01*
X113334250Y-74308821D01*
X113343239Y-74308500D01*
X114369800Y-74308500D01*
X114426609Y-74322033D01*
X114427260Y-74322362D01*
X114433159Y-74326222D01*
X114439767Y-74328680D01*
X114439768Y-74328680D01*
X114596558Y-74386990D01*
X114596560Y-74386990D01*
X114603168Y-74389448D01*
X114686995Y-74400633D01*
X114775980Y-74412507D01*
X114775984Y-74412507D01*
X114782961Y-74413438D01*
X114789972Y-74412800D01*
X114789976Y-74412800D01*
X114953414Y-74397925D01*
X114963600Y-74396998D01*
X114970302Y-74394820D01*
X114970304Y-74394820D01*
X115129409Y-74343124D01*
X115129412Y-74343123D01*
X115136108Y-74340947D01*
X115160727Y-74326271D01*
X115225245Y-74308500D01*
X119771088Y-74308500D01*
X119779658Y-74308792D01*
X119829776Y-74312209D01*
X119829780Y-74312209D01*
X119837352Y-74312725D01*
X119844829Y-74311420D01*
X119844830Y-74311420D01*
X119871308Y-74306799D01*
X119900303Y-74301738D01*
X119906821Y-74300777D01*
X119970242Y-74293102D01*
X119977343Y-74290419D01*
X119979952Y-74289778D01*
X119996262Y-74285315D01*
X119998798Y-74284550D01*
X120006284Y-74283243D01*
X120064800Y-74257556D01*
X120070904Y-74255065D01*
X120123548Y-74235173D01*
X120123549Y-74235172D01*
X120130656Y-74232487D01*
X120136919Y-74228183D01*
X120139285Y-74226946D01*
X120154097Y-74218701D01*
X120156351Y-74217368D01*
X120163305Y-74214315D01*
X120214002Y-74175413D01*
X120219332Y-74171541D01*
X120265720Y-74139661D01*
X120265725Y-74139656D01*
X120271981Y-74135357D01*
X120313436Y-74088829D01*
X120318416Y-74083554D01*
X120803493Y-73598477D01*
X120853651Y-73567739D01*
X120929411Y-73543123D01*
X120936108Y-73540947D01*
X121091912Y-73448069D01*
X121223266Y-73322982D01*
X121323643Y-73171902D01*
X121388055Y-73002338D01*
X121413299Y-72822717D01*
X121413616Y-72800000D01*
X121396627Y-72648544D01*
X121408911Y-72578620D01*
X121457050Y-72526435D01*
X121521842Y-72508500D01*
X125171088Y-72508500D01*
X125179658Y-72508792D01*
X125229776Y-72512209D01*
X125229780Y-72512209D01*
X125237352Y-72512725D01*
X125244829Y-72511420D01*
X125244830Y-72511420D01*
X125271308Y-72506799D01*
X125300303Y-72501738D01*
X125306821Y-72500777D01*
X125370242Y-72493102D01*
X125377343Y-72490419D01*
X125379952Y-72489778D01*
X125396262Y-72485315D01*
X125398798Y-72484550D01*
X125406284Y-72483243D01*
X125464800Y-72457556D01*
X125470904Y-72455065D01*
X125523548Y-72435173D01*
X125523549Y-72435172D01*
X125530656Y-72432487D01*
X125536919Y-72428183D01*
X125539285Y-72426946D01*
X125554097Y-72418701D01*
X125556351Y-72417368D01*
X125563305Y-72414315D01*
X125614002Y-72375413D01*
X125619332Y-72371541D01*
X125665720Y-72339661D01*
X125665725Y-72339656D01*
X125671981Y-72335357D01*
X125677030Y-72329690D01*
X125677037Y-72329684D01*
X125713444Y-72288821D01*
X125718425Y-72283545D01*
X125803494Y-72198476D01*
X125853653Y-72167738D01*
X125929409Y-72143124D01*
X125929412Y-72143123D01*
X125936108Y-72140947D01*
X126091912Y-72048069D01*
X126223266Y-71922982D01*
X126323643Y-71771902D01*
X126388055Y-71602338D01*
X126389156Y-71594507D01*
X126412748Y-71426639D01*
X126412748Y-71426636D01*
X126413299Y-71422717D01*
X126413616Y-71400000D01*
X126393397Y-71219745D01*
X126385007Y-71195653D01*
X126336064Y-71055106D01*
X126336062Y-71055103D01*
X126333745Y-71048448D01*
X126306823Y-71005364D01*
X126241359Y-70900598D01*
X126237626Y-70894624D01*
X126198383Y-70855106D01*
X126114778Y-70770915D01*
X126114774Y-70770912D01*
X126109815Y-70765918D01*
X126098697Y-70758862D01*
X126050538Y-70728300D01*
X125956666Y-70668727D01*
X125927463Y-70658328D01*
X125792425Y-70610243D01*
X125792420Y-70610242D01*
X125785790Y-70607881D01*
X125778802Y-70607048D01*
X125778799Y-70607047D01*
X125655698Y-70592368D01*
X125605680Y-70586404D01*
X125598677Y-70587140D01*
X125598676Y-70587140D01*
X125432288Y-70604628D01*
X125432286Y-70604629D01*
X125425288Y-70605364D01*
X125253579Y-70663818D01*
X125247575Y-70667512D01*
X125105095Y-70755166D01*
X125105092Y-70755168D01*
X125099088Y-70758862D01*
X125094053Y-70763793D01*
X125094050Y-70763795D01*
X124974525Y-70880843D01*
X124969493Y-70885771D01*
X124900065Y-70993503D01*
X124874124Y-71033755D01*
X124820410Y-71080180D01*
X124768213Y-71091500D01*
X120229158Y-71091500D01*
X120169624Y-71074205D01*
X120168948Y-71075590D01*
X120162609Y-71072498D01*
X120156666Y-71068727D01*
X120142880Y-71063818D01*
X119992425Y-71010243D01*
X119992420Y-71010242D01*
X119985790Y-71007881D01*
X119978802Y-71007048D01*
X119978799Y-71007047D01*
X119855698Y-70992368D01*
X119805680Y-70986404D01*
X119798677Y-70987140D01*
X119798676Y-70987140D01*
X119632288Y-71004628D01*
X119632286Y-71004629D01*
X119625288Y-71005364D01*
X119453579Y-71063818D01*
X119402975Y-71094950D01*
X119305095Y-71155166D01*
X119305092Y-71155168D01*
X119299088Y-71158862D01*
X119294053Y-71163793D01*
X119294050Y-71163795D01*
X119174525Y-71280843D01*
X119169493Y-71285771D01*
X119071235Y-71438238D01*
X119068826Y-71444858D01*
X119068824Y-71444861D01*
X119039391Y-71525728D01*
X119009197Y-71608685D01*
X118986463Y-71788640D01*
X119004163Y-71969160D01*
X119061418Y-72141273D01*
X119065065Y-72147295D01*
X119065066Y-72147297D01*
X119149143Y-72286125D01*
X119155380Y-72296424D01*
X119281382Y-72426902D01*
X119324420Y-72455065D01*
X119394882Y-72501174D01*
X119433159Y-72526222D01*
X119439763Y-72528678D01*
X119439765Y-72528679D01*
X119568943Y-72576720D01*
X119625819Y-72619212D01*
X119650693Y-72685709D01*
X119635668Y-72755097D01*
X119614118Y-72783912D01*
X119543435Y-72854595D01*
X119481123Y-72888621D01*
X119454340Y-72891500D01*
X117920471Y-72891500D01*
X117852350Y-72871498D01*
X117805857Y-72817842D01*
X117795697Y-72747964D01*
X117812748Y-72626640D01*
X117812748Y-72626635D01*
X117813299Y-72622717D01*
X117813616Y-72600000D01*
X117793397Y-72419745D01*
X117764010Y-72335357D01*
X117736064Y-72255106D01*
X117736062Y-72255103D01*
X117733745Y-72248448D01*
X117637626Y-72094624D01*
X117586571Y-72043211D01*
X117514778Y-71970915D01*
X117514774Y-71970912D01*
X117509815Y-71965918D01*
X117356666Y-71868727D01*
X117325457Y-71857614D01*
X117218567Y-71819552D01*
X117183089Y-71800008D01*
X117175693Y-71794209D01*
X117169718Y-71789524D01*
X117162802Y-71786401D01*
X117160516Y-71785017D01*
X117145835Y-71776643D01*
X117143475Y-71775378D01*
X117137261Y-71771010D01*
X117130182Y-71768250D01*
X117130180Y-71768249D01*
X117077725Y-71747798D01*
X117071656Y-71745247D01*
X117013427Y-71718955D01*
X117005960Y-71717571D01*
X117003405Y-71716770D01*
X116987152Y-71712141D01*
X116984572Y-71711478D01*
X116977491Y-71708718D01*
X116969960Y-71707727D01*
X116969958Y-71707726D01*
X116940339Y-71703827D01*
X116914139Y-71700378D01*
X116907641Y-71699348D01*
X116844814Y-71687704D01*
X116837234Y-71688141D01*
X116837233Y-71688141D01*
X116782608Y-71691291D01*
X116775354Y-71691500D01*
X113260860Y-71691500D01*
X113192739Y-71671498D01*
X113146246Y-71617842D01*
X113136142Y-71547568D01*
X113143072Y-71520756D01*
X113185555Y-71408920D01*
X113185556Y-71408918D01*
X113188055Y-71402338D01*
X113189035Y-71395366D01*
X113212748Y-71226639D01*
X113212748Y-71226636D01*
X113213299Y-71222717D01*
X113213506Y-71207881D01*
X113213561Y-71203962D01*
X113213561Y-71203957D01*
X113213616Y-71200000D01*
X113193397Y-71019745D01*
X113190088Y-71010243D01*
X113136064Y-70855106D01*
X113136062Y-70855103D01*
X113133745Y-70848448D01*
X113127644Y-70838684D01*
X113108500Y-70771918D01*
X113108500Y-67830132D01*
X113121983Y-67774400D01*
X113123643Y-67771902D01*
X113188055Y-67602338D01*
X113213299Y-67422717D01*
X113213616Y-67400000D01*
X113193397Y-67219745D01*
X113191080Y-67213091D01*
X113136064Y-67055106D01*
X113136062Y-67055103D01*
X113133745Y-67048448D01*
X113123662Y-67032312D01*
X113041359Y-66900598D01*
X113037626Y-66894624D01*
X113009561Y-66866362D01*
X112914778Y-66770915D01*
X112914774Y-66770912D01*
X112909815Y-66765918D01*
X112898697Y-66758862D01*
X112850538Y-66728300D01*
X112756666Y-66668727D01*
X112727463Y-66658328D01*
X112592425Y-66610243D01*
X112592420Y-66610242D01*
X112585790Y-66607881D01*
X112578802Y-66607048D01*
X112578799Y-66607047D01*
X112455698Y-66592368D01*
X112405680Y-66586404D01*
X112398677Y-66587140D01*
X112398676Y-66587140D01*
X112232288Y-66604628D01*
X112232286Y-66604629D01*
X112225288Y-66605364D01*
X112053579Y-66663818D01*
X112047575Y-66667512D01*
X111905095Y-66755166D01*
X111905092Y-66755168D01*
X111899088Y-66758862D01*
X111894053Y-66763793D01*
X111894050Y-66763795D01*
X111774525Y-66880843D01*
X111769493Y-66885771D01*
X111671235Y-67038238D01*
X111668824Y-67044862D01*
X111668823Y-67044864D01*
X111660447Y-67067877D01*
X111618353Y-67125049D01*
X111552032Y-67150387D01*
X111482540Y-67135846D01*
X111443301Y-67103048D01*
X111441359Y-67100597D01*
X111437626Y-67094624D01*
X111373720Y-67030271D01*
X111314778Y-66970915D01*
X111314774Y-66970912D01*
X111309815Y-66965918D01*
X111298697Y-66958862D01*
X111250538Y-66928300D01*
X111156666Y-66868727D01*
X111127463Y-66858328D01*
X110992425Y-66810243D01*
X110992420Y-66810242D01*
X110985790Y-66807881D01*
X110978802Y-66807048D01*
X110978799Y-66807047D01*
X110855698Y-66792368D01*
X110805680Y-66786404D01*
X110798677Y-66787140D01*
X110798676Y-66787140D01*
X110632288Y-66804628D01*
X110632286Y-66804629D01*
X110625288Y-66805364D01*
X110453579Y-66863818D01*
X110417895Y-66885771D01*
X110305095Y-66955166D01*
X110305092Y-66955168D01*
X110299088Y-66958862D01*
X110294053Y-66963793D01*
X110294050Y-66963795D01*
X110174525Y-67080843D01*
X110169493Y-67085771D01*
X110071235Y-67238238D01*
X110068826Y-67244858D01*
X110068824Y-67244861D01*
X110016493Y-67388640D01*
X110009197Y-67408685D01*
X109986463Y-67588640D01*
X110004163Y-67769160D01*
X110061418Y-67941273D01*
X110065065Y-67947296D01*
X110065066Y-67947297D01*
X110073276Y-67960853D01*
X110091500Y-68026124D01*
X110091500Y-70227840D01*
X110071498Y-70295961D01*
X110054595Y-70316935D01*
X109796563Y-70574967D01*
X109748074Y-70605150D01*
X109653579Y-70637318D01*
X109647575Y-70641012D01*
X109505095Y-70728666D01*
X109505092Y-70728668D01*
X109499088Y-70732362D01*
X109494053Y-70737293D01*
X109494050Y-70737295D01*
X109380838Y-70848161D01*
X109369493Y-70859271D01*
X109271235Y-71011738D01*
X109268826Y-71018358D01*
X109268824Y-71018361D01*
X109243079Y-71089096D01*
X109209197Y-71182185D01*
X109186463Y-71362140D01*
X109204068Y-71541692D01*
X109204068Y-71541694D01*
X109204163Y-71542660D01*
X109203993Y-71542677D01*
X109198853Y-71610088D01*
X109156039Y-71666722D01*
X109089403Y-71691220D01*
X109081006Y-71691500D01*
X107030489Y-71691500D01*
X106962368Y-71671498D01*
X106923635Y-71632269D01*
X106908899Y-71608685D01*
X106837626Y-71494624D01*
X106785400Y-71442032D01*
X106714778Y-71370915D01*
X106714774Y-71370912D01*
X106709815Y-71365918D01*
X106698697Y-71358862D01*
X106650538Y-71328300D01*
X106556666Y-71268727D01*
X106527463Y-71258328D01*
X106392425Y-71210243D01*
X106392420Y-71210242D01*
X106385790Y-71207881D01*
X106378802Y-71207048D01*
X106378799Y-71207047D01*
X106255698Y-71192368D01*
X106205680Y-71186404D01*
X106198677Y-71187140D01*
X106198676Y-71187140D01*
X106032288Y-71204628D01*
X106032286Y-71204629D01*
X106025288Y-71205364D01*
X105853579Y-71263818D01*
X105817895Y-71285771D01*
X105705095Y-71355166D01*
X105705092Y-71355168D01*
X105699088Y-71358862D01*
X105694053Y-71363793D01*
X105694050Y-71363795D01*
X105639376Y-71417337D01*
X105624084Y-71432312D01*
X105614158Y-71442032D01*
X105551493Y-71475403D01*
X105480734Y-71469597D01*
X105424347Y-71426458D01*
X105400234Y-71359681D01*
X105400000Y-71352009D01*
X105400000Y-70000000D01*
X101958225Y-70000000D01*
X101890104Y-69979998D01*
X101843611Y-69926342D01*
X101832225Y-69874202D01*
X101829268Y-68026124D01*
X101825943Y-65948201D01*
X101845836Y-65880049D01*
X101899417Y-65833470D01*
X101951943Y-65822000D01*
X130836329Y-65822000D01*
X130905322Y-65842568D01*
G37*
G04 #@! TD.AperFunction*
G04 #@! TA.AperFunction,Conductor*
G36*
X110435216Y-52462497D02*
G01*
X110481948Y-52515944D01*
X110492365Y-52586173D01*
X110463161Y-52650884D01*
X110433596Y-52676112D01*
X110299088Y-52758862D01*
X110294053Y-52763793D01*
X110294050Y-52763795D01*
X110174525Y-52880843D01*
X110169493Y-52885771D01*
X110071235Y-53038238D01*
X110068826Y-53044858D01*
X110068824Y-53044861D01*
X110023802Y-53168558D01*
X110009197Y-53208685D01*
X109986463Y-53388640D01*
X110004163Y-53569160D01*
X110061418Y-53741273D01*
X110155380Y-53896424D01*
X110281382Y-54026902D01*
X110433159Y-54126222D01*
X110439763Y-54128678D01*
X110439765Y-54128679D01*
X110596558Y-54186990D01*
X110596560Y-54186990D01*
X110603168Y-54189448D01*
X110682250Y-54200000D01*
X110775980Y-54212507D01*
X110775984Y-54212507D01*
X110782961Y-54213438D01*
X110789972Y-54212800D01*
X110789976Y-54212800D01*
X110932459Y-54199832D01*
X110963600Y-54196998D01*
X110970302Y-54194820D01*
X110970304Y-54194820D01*
X111129409Y-54143124D01*
X111129412Y-54143123D01*
X111136108Y-54140947D01*
X111160727Y-54126271D01*
X111225245Y-54108500D01*
X129854340Y-54108500D01*
X129922461Y-54128502D01*
X129943435Y-54145405D01*
X130201532Y-54403502D01*
X130231994Y-54452824D01*
X130261418Y-54541273D01*
X130355380Y-54696424D01*
X130481382Y-54826902D01*
X130633159Y-54926222D01*
X130639763Y-54928678D01*
X130639765Y-54928679D01*
X130796558Y-54986990D01*
X130796560Y-54986990D01*
X130803168Y-54989448D01*
X130886995Y-55000633D01*
X130975980Y-55012507D01*
X130975984Y-55012507D01*
X130982961Y-55013438D01*
X130989972Y-55012800D01*
X130989974Y-55012800D01*
X130997136Y-55012148D01*
X131012580Y-55010742D01*
X131082232Y-55024486D01*
X131133397Y-55073707D01*
X131150000Y-55136223D01*
X131150000Y-62340786D01*
X131129998Y-62408907D01*
X131076342Y-62455400D01*
X131064610Y-62460062D01*
X131060254Y-62461545D01*
X131060249Y-62461547D01*
X131053579Y-62463818D01*
X131047575Y-62467512D01*
X130905090Y-62555169D01*
X130905087Y-62555171D01*
X130899088Y-62558862D01*
X130852646Y-62604342D01*
X130814167Y-62642023D01*
X130751502Y-62675394D01*
X130726009Y-62678000D01*
X122465988Y-62678000D01*
X122397867Y-62657998D01*
X122351374Y-62604342D01*
X122341270Y-62534068D01*
X122348200Y-62507256D01*
X122385555Y-62408920D01*
X122385556Y-62408918D01*
X122388055Y-62402338D01*
X122390212Y-62386990D01*
X122412748Y-62226639D01*
X122412748Y-62226636D01*
X122413299Y-62222717D01*
X122413616Y-62200000D01*
X122393397Y-62019745D01*
X122391080Y-62013091D01*
X122336064Y-61855106D01*
X122336062Y-61855103D01*
X122333745Y-61848448D01*
X122237626Y-61694624D01*
X122216435Y-61673284D01*
X122182627Y-61610855D01*
X122187938Y-61540057D01*
X122230682Y-61483370D01*
X122297289Y-61458791D01*
X122305840Y-61458500D01*
X126404340Y-61458500D01*
X126472461Y-61478502D01*
X126493435Y-61495405D01*
X126801532Y-61803502D01*
X126831994Y-61852824D01*
X126861418Y-61941273D01*
X126865065Y-61947295D01*
X126865066Y-61947297D01*
X126913181Y-62026744D01*
X126955380Y-62096424D01*
X127081382Y-62226902D01*
X127233159Y-62326222D01*
X127239763Y-62328678D01*
X127239765Y-62328679D01*
X127396558Y-62386990D01*
X127396560Y-62386990D01*
X127403168Y-62389448D01*
X127486995Y-62400633D01*
X127575980Y-62412507D01*
X127575984Y-62412507D01*
X127582961Y-62413438D01*
X127589972Y-62412800D01*
X127589976Y-62412800D01*
X127732459Y-62399832D01*
X127763600Y-62396998D01*
X127770302Y-62394820D01*
X127770304Y-62394820D01*
X127929409Y-62343124D01*
X127929412Y-62343123D01*
X127936108Y-62340947D01*
X128091912Y-62248069D01*
X128223266Y-62122982D01*
X128323643Y-61971902D01*
X128376669Y-61832312D01*
X128385555Y-61808920D01*
X128385556Y-61808918D01*
X128388055Y-61802338D01*
X128403895Y-61689628D01*
X128412748Y-61626639D01*
X128412748Y-61626636D01*
X128413299Y-61622717D01*
X128413616Y-61600000D01*
X128393397Y-61419745D01*
X128333745Y-61248448D01*
X128237626Y-61094624D01*
X128142446Y-60998777D01*
X128114778Y-60970915D01*
X128114774Y-60970912D01*
X128109815Y-60965918D01*
X127956666Y-60868727D01*
X127853612Y-60832031D01*
X127849908Y-60830712D01*
X127803080Y-60801109D01*
X127271435Y-60269465D01*
X127265581Y-60263198D01*
X127232556Y-60225340D01*
X127232553Y-60225337D01*
X127227561Y-60219615D01*
X127175280Y-60182871D01*
X127169986Y-60178939D01*
X127125693Y-60144209D01*
X127119718Y-60139524D01*
X127112802Y-60136401D01*
X127110516Y-60135017D01*
X127095835Y-60126643D01*
X127093475Y-60125378D01*
X127087261Y-60121010D01*
X127080182Y-60118250D01*
X127080180Y-60118249D01*
X127027725Y-60097798D01*
X127021656Y-60095247D01*
X126963427Y-60068955D01*
X126955960Y-60067571D01*
X126953405Y-60066770D01*
X126937152Y-60062141D01*
X126934572Y-60061478D01*
X126927491Y-60058718D01*
X126919960Y-60057727D01*
X126919958Y-60057726D01*
X126890339Y-60053827D01*
X126864139Y-60050378D01*
X126857641Y-60049348D01*
X126794814Y-60037704D01*
X126787234Y-60038141D01*
X126787233Y-60038141D01*
X126732608Y-60041291D01*
X126725354Y-60041500D01*
X119983731Y-60041500D01*
X119915610Y-60021498D01*
X119869117Y-59967842D01*
X119859013Y-59897568D01*
X119888507Y-59832988D01*
X119950996Y-59793872D01*
X119958851Y-59792838D01*
X120106876Y-59731524D01*
X120146020Y-59701488D01*
X120202072Y-59658477D01*
X120202075Y-59658474D01*
X120227437Y-59639013D01*
X120228140Y-59638474D01*
X120228143Y-59638472D01*
X120233987Y-59633987D01*
X120234687Y-59634899D01*
X120290096Y-59604649D01*
X120305447Y-59602291D01*
X120356579Y-59597637D01*
X120363600Y-59596998D01*
X120370302Y-59594820D01*
X120370304Y-59594820D01*
X120529409Y-59543124D01*
X120529412Y-59543123D01*
X120536108Y-59540947D01*
X120691912Y-59448069D01*
X120823266Y-59322982D01*
X120923643Y-59171902D01*
X120988055Y-59002338D01*
X121013299Y-58822717D01*
X121013616Y-58800000D01*
X120993397Y-58619745D01*
X120976596Y-58571498D01*
X120936064Y-58455106D01*
X120936062Y-58455103D01*
X120933745Y-58448448D01*
X120906823Y-58405364D01*
X120841359Y-58300598D01*
X120837626Y-58294624D01*
X120786571Y-58243211D01*
X120714778Y-58170915D01*
X120714774Y-58170912D01*
X120709815Y-58165918D01*
X120670367Y-58140883D01*
X120623570Y-58087497D01*
X120613065Y-58017281D01*
X120642189Y-57952533D01*
X120701694Y-57913809D01*
X120737883Y-57908500D01*
X123169800Y-57908500D01*
X123226609Y-57922033D01*
X123227260Y-57922362D01*
X123233159Y-57926222D01*
X123239767Y-57928680D01*
X123239768Y-57928680D01*
X123396558Y-57986990D01*
X123396560Y-57986990D01*
X123403168Y-57989448D01*
X123486995Y-58000633D01*
X123575980Y-58012507D01*
X123575984Y-58012507D01*
X123582961Y-58013438D01*
X123589972Y-58012800D01*
X123589976Y-58012800D01*
X123732459Y-57999832D01*
X123763600Y-57996998D01*
X123770302Y-57994820D01*
X123770304Y-57994820D01*
X123929409Y-57943124D01*
X123929412Y-57943123D01*
X123936108Y-57940947D01*
X124091912Y-57848069D01*
X124223266Y-57722982D01*
X124323643Y-57571902D01*
X124388055Y-57402338D01*
X124389035Y-57395366D01*
X124412748Y-57226639D01*
X124412748Y-57226636D01*
X124413299Y-57222717D01*
X124413616Y-57200000D01*
X124393397Y-57019745D01*
X124380130Y-56981646D01*
X124336064Y-56855106D01*
X124336062Y-56855103D01*
X124333745Y-56848448D01*
X124258903Y-56728675D01*
X124241359Y-56700598D01*
X124237626Y-56694624D01*
X124232663Y-56689626D01*
X124232658Y-56689620D01*
X124232290Y-56689249D01*
X124232130Y-56688953D01*
X124228285Y-56684102D01*
X124229137Y-56683426D01*
X124198486Y-56626817D01*
X124203802Y-56556020D01*
X124222959Y-56523274D01*
X124223266Y-56522982D01*
X124323643Y-56371902D01*
X124388055Y-56202338D01*
X124390191Y-56187140D01*
X124412748Y-56026639D01*
X124412748Y-56026636D01*
X124413299Y-56022717D01*
X124413616Y-56000000D01*
X124393397Y-55819745D01*
X124391080Y-55813091D01*
X124336064Y-55655106D01*
X124336062Y-55655103D01*
X124333745Y-55648448D01*
X124237626Y-55494624D01*
X124223941Y-55480843D01*
X124114778Y-55370915D01*
X124114774Y-55370912D01*
X124109815Y-55365918D01*
X124098697Y-55358862D01*
X124050538Y-55328300D01*
X123956666Y-55268727D01*
X123927463Y-55258328D01*
X123792425Y-55210243D01*
X123792420Y-55210242D01*
X123785790Y-55207881D01*
X123778802Y-55207048D01*
X123778799Y-55207047D01*
X123655698Y-55192368D01*
X123605680Y-55186404D01*
X123598677Y-55187140D01*
X123598676Y-55187140D01*
X123432288Y-55204628D01*
X123432286Y-55204629D01*
X123425288Y-55205364D01*
X123335094Y-55236068D01*
X123260249Y-55261547D01*
X123260246Y-55261548D01*
X123253579Y-55263818D01*
X123247576Y-55267511D01*
X123247574Y-55267512D01*
X123238949Y-55272818D01*
X123172928Y-55291500D01*
X112829158Y-55291500D01*
X112769624Y-55274205D01*
X112768948Y-55275590D01*
X112762609Y-55272498D01*
X112756666Y-55268727D01*
X112750033Y-55266365D01*
X112592425Y-55210243D01*
X112592420Y-55210242D01*
X112585790Y-55207881D01*
X112578802Y-55207048D01*
X112578799Y-55207047D01*
X112455698Y-55192368D01*
X112405680Y-55186404D01*
X112398677Y-55187140D01*
X112398676Y-55187140D01*
X112232288Y-55204628D01*
X112232286Y-55204629D01*
X112225288Y-55205364D01*
X112053579Y-55263818D01*
X112034444Y-55275590D01*
X111905095Y-55355166D01*
X111905092Y-55355168D01*
X111899088Y-55358862D01*
X111894053Y-55363793D01*
X111894050Y-55363795D01*
X111774525Y-55480843D01*
X111769493Y-55485771D01*
X111671235Y-55638238D01*
X111668826Y-55644858D01*
X111668824Y-55644861D01*
X111611606Y-55802066D01*
X111609197Y-55808685D01*
X111586463Y-55988640D01*
X111604163Y-56169160D01*
X111661418Y-56341273D01*
X111665065Y-56347295D01*
X111665066Y-56347297D01*
X111751264Y-56489627D01*
X111755380Y-56496424D01*
X111760269Y-56501487D01*
X111760270Y-56501488D01*
X111837121Y-56581068D01*
X111881382Y-56626902D01*
X112033159Y-56726222D01*
X112069121Y-56739596D01*
X112125994Y-56782087D01*
X112150868Y-56848584D01*
X112135843Y-56917972D01*
X112103454Y-56956176D01*
X112099088Y-56958862D01*
X111969493Y-57085771D01*
X111871235Y-57238238D01*
X111868826Y-57244858D01*
X111868824Y-57244861D01*
X111824983Y-57365314D01*
X111809197Y-57408685D01*
X111786463Y-57588640D01*
X111804163Y-57769160D01*
X111861418Y-57941273D01*
X111865065Y-57947295D01*
X111865066Y-57947297D01*
X111949974Y-58087497D01*
X111955380Y-58096424D01*
X112081382Y-58226902D01*
X112233159Y-58326222D01*
X112290116Y-58347404D01*
X112346989Y-58389895D01*
X112371863Y-58456392D01*
X112356838Y-58525780D01*
X112306684Y-58576030D01*
X112246193Y-58591500D01*
X103984751Y-58591500D01*
X103916630Y-58571498D01*
X103912157Y-58568276D01*
X103909815Y-58565918D01*
X103898697Y-58558862D01*
X103819488Y-58508595D01*
X103756666Y-58468727D01*
X103699716Y-58448448D01*
X103592425Y-58410243D01*
X103592420Y-58410242D01*
X103585790Y-58407881D01*
X103578802Y-58407048D01*
X103578799Y-58407047D01*
X103434956Y-58389895D01*
X103405680Y-58386404D01*
X103398677Y-58387140D01*
X103398676Y-58387140D01*
X103232288Y-58404628D01*
X103232286Y-58404629D01*
X103225288Y-58405364D01*
X103053579Y-58463818D01*
X103047575Y-58467512D01*
X102905095Y-58555166D01*
X102905092Y-58555168D01*
X102899088Y-58558862D01*
X102894053Y-58563793D01*
X102894050Y-58563795D01*
X102865759Y-58591500D01*
X102769493Y-58685771D01*
X102671235Y-58838238D01*
X102609197Y-59008685D01*
X102586463Y-59188640D01*
X102604163Y-59369160D01*
X102661418Y-59541273D01*
X102665065Y-59547295D01*
X102665066Y-59547297D01*
X102732399Y-59658477D01*
X102755380Y-59696424D01*
X102760269Y-59701487D01*
X102760270Y-59701488D01*
X102881382Y-59826902D01*
X102879385Y-59828830D01*
X102912088Y-59877232D01*
X102913720Y-59948209D01*
X102876720Y-60008802D01*
X102812834Y-60039772D01*
X102792040Y-60041500D01*
X101942292Y-60041500D01*
X101874171Y-60021498D01*
X101827678Y-59967842D01*
X101816292Y-59915702D01*
X101811608Y-56988640D01*
X102586463Y-56988640D01*
X102604163Y-57169160D01*
X102661418Y-57341273D01*
X102665065Y-57347295D01*
X102665066Y-57347297D01*
X102694178Y-57395366D01*
X102755380Y-57496424D01*
X102881382Y-57626902D01*
X102887278Y-57630760D01*
X103026758Y-57722033D01*
X103033159Y-57726222D01*
X103039763Y-57728678D01*
X103039765Y-57728679D01*
X103196558Y-57786990D01*
X103196560Y-57786990D01*
X103203168Y-57789448D01*
X103286995Y-57800633D01*
X103375980Y-57812507D01*
X103375984Y-57812507D01*
X103382961Y-57813438D01*
X103389972Y-57812800D01*
X103389976Y-57812800D01*
X103532459Y-57799832D01*
X103563600Y-57796998D01*
X103570302Y-57794820D01*
X103570304Y-57794820D01*
X103729409Y-57743124D01*
X103729412Y-57743123D01*
X103736108Y-57740947D01*
X103760727Y-57726271D01*
X103825245Y-57708500D01*
X105369800Y-57708500D01*
X105426609Y-57722033D01*
X105427260Y-57722362D01*
X105433159Y-57726222D01*
X105439766Y-57728679D01*
X105439768Y-57728680D01*
X105596558Y-57786990D01*
X105596560Y-57786990D01*
X105603168Y-57789448D01*
X105686995Y-57800633D01*
X105775980Y-57812507D01*
X105775984Y-57812507D01*
X105782961Y-57813438D01*
X105789972Y-57812800D01*
X105789976Y-57812800D01*
X105932459Y-57799832D01*
X105963600Y-57796998D01*
X105970302Y-57794820D01*
X105970304Y-57794820D01*
X106129409Y-57743124D01*
X106129412Y-57743123D01*
X106136108Y-57740947D01*
X106291912Y-57648069D01*
X106423266Y-57522982D01*
X106523643Y-57371902D01*
X106588055Y-57202338D01*
X106589035Y-57195366D01*
X106612748Y-57026639D01*
X106612748Y-57026636D01*
X106613299Y-57022717D01*
X106613616Y-57000000D01*
X106593397Y-56819745D01*
X106591080Y-56813091D01*
X106536064Y-56655106D01*
X106536062Y-56655103D01*
X106533745Y-56648448D01*
X106437626Y-56494624D01*
X106321588Y-56377773D01*
X106314778Y-56370915D01*
X106314774Y-56370912D01*
X106309815Y-56365918D01*
X106298697Y-56358862D01*
X106250538Y-56328300D01*
X106156666Y-56268727D01*
X106127463Y-56258328D01*
X105992425Y-56210243D01*
X105992420Y-56210242D01*
X105985790Y-56207881D01*
X105978802Y-56207048D01*
X105978799Y-56207047D01*
X105855698Y-56192368D01*
X105805680Y-56186404D01*
X105798677Y-56187140D01*
X105798676Y-56187140D01*
X105632288Y-56204628D01*
X105632286Y-56204629D01*
X105625288Y-56205364D01*
X105535094Y-56236068D01*
X105460249Y-56261547D01*
X105460246Y-56261548D01*
X105453579Y-56263818D01*
X105447576Y-56267511D01*
X105447574Y-56267512D01*
X105438949Y-56272818D01*
X105372928Y-56291500D01*
X103829158Y-56291500D01*
X103769624Y-56274205D01*
X103768948Y-56275590D01*
X103762609Y-56272498D01*
X103756666Y-56268727D01*
X103750033Y-56266365D01*
X103592425Y-56210243D01*
X103592420Y-56210242D01*
X103585790Y-56207881D01*
X103578802Y-56207048D01*
X103578799Y-56207047D01*
X103455698Y-56192368D01*
X103405680Y-56186404D01*
X103398677Y-56187140D01*
X103398676Y-56187140D01*
X103232288Y-56204628D01*
X103232286Y-56204629D01*
X103225288Y-56205364D01*
X103053579Y-56263818D01*
X103034444Y-56275590D01*
X102905095Y-56355166D01*
X102905092Y-56355168D01*
X102899088Y-56358862D01*
X102894053Y-56363793D01*
X102894050Y-56363795D01*
X102774525Y-56480843D01*
X102769493Y-56485771D01*
X102671235Y-56638238D01*
X102668826Y-56644858D01*
X102668824Y-56644861D01*
X102640615Y-56722364D01*
X102609197Y-56808685D01*
X102586463Y-56988640D01*
X101811608Y-56988640D01*
X101804597Y-52606672D01*
X101824490Y-52538519D01*
X101878071Y-52491940D01*
X101930034Y-52480471D01*
X102350950Y-52478592D01*
X110367006Y-52442799D01*
X110435216Y-52462497D01*
G37*
G04 #@! TD.AperFunction*
M02*
