G04 #@! TF.GenerationSoftware,KiCad,Pcbnew,(5.99.0-11535-gf6cac49802)*
G04 #@! TF.CreationDate,2021-08-06T14:04:52-04:00*
G04 #@! TF.ProjectId,esphome-humitemp,65737068-6f6d-4652-9d68-756d6974656d,1*
G04 #@! TF.SameCoordinates,Original*
G04 #@! TF.FileFunction,AssemblyDrawing,Top*
%FSLAX46Y46*%
G04 Gerber Fmt 4.6, Leading zero omitted, Abs format (unit mm)*
G04 Created by KiCad (PCBNEW (5.99.0-11535-gf6cac49802)) date 2021-08-06 14:04:52*
%MOMM*%
%LPD*%
G01*
G04 APERTURE LIST*
%ADD10C,0.150000*%
%ADD11C,0.080000*%
%ADD12C,0.060000*%
%ADD13C,0.100000*%
%ADD14C,0.127000*%
%ADD15C,0.200000*%
G04 APERTURE END LIST*
D10*
X111111904Y-61752380D02*
X111111904Y-60752380D01*
X111683333Y-61752380D01*
X111683333Y-60752380D01*
X112350000Y-60752380D02*
X112540476Y-60752380D01*
X112635714Y-60800000D01*
X112730952Y-60895238D01*
X112778571Y-61085714D01*
X112778571Y-61419047D01*
X112730952Y-61609523D01*
X112635714Y-61704761D01*
X112540476Y-61752380D01*
X112350000Y-61752380D01*
X112254761Y-61704761D01*
X112159523Y-61609523D01*
X112111904Y-61419047D01*
X112111904Y-61085714D01*
X112159523Y-60895238D01*
X112254761Y-60800000D01*
X112350000Y-60752380D01*
X113921428Y-61704761D02*
X114016666Y-61752380D01*
X114207142Y-61752380D01*
X114302380Y-61704761D01*
X114350000Y-61609523D01*
X114350000Y-61561904D01*
X114302380Y-61466666D01*
X114207142Y-61419047D01*
X114064285Y-61419047D01*
X113969047Y-61371428D01*
X113921428Y-61276190D01*
X113921428Y-61228571D01*
X113969047Y-61133333D01*
X114064285Y-61085714D01*
X114207142Y-61085714D01*
X114302380Y-61133333D01*
X114921428Y-61752380D02*
X114826190Y-61704761D01*
X114778571Y-61657142D01*
X114730952Y-61561904D01*
X114730952Y-61276190D01*
X114778571Y-61180952D01*
X114826190Y-61133333D01*
X114921428Y-61085714D01*
X115064285Y-61085714D01*
X115159523Y-61133333D01*
X115207142Y-61180952D01*
X115254761Y-61276190D01*
X115254761Y-61561904D01*
X115207142Y-61657142D01*
X115159523Y-61704761D01*
X115064285Y-61752380D01*
X114921428Y-61752380D01*
X115826190Y-61752380D02*
X115730952Y-61704761D01*
X115683333Y-61609523D01*
X115683333Y-60752380D01*
X116635714Y-61752380D02*
X116635714Y-60752380D01*
X116635714Y-61704761D02*
X116540476Y-61752380D01*
X116350000Y-61752380D01*
X116254761Y-61704761D01*
X116207142Y-61657142D01*
X116159523Y-61561904D01*
X116159523Y-61276190D01*
X116207142Y-61180952D01*
X116254761Y-61133333D01*
X116350000Y-61085714D01*
X116540476Y-61085714D01*
X116635714Y-61133333D01*
X117492857Y-61704761D02*
X117397619Y-61752380D01*
X117207142Y-61752380D01*
X117111904Y-61704761D01*
X117064285Y-61609523D01*
X117064285Y-61228571D01*
X117111904Y-61133333D01*
X117207142Y-61085714D01*
X117397619Y-61085714D01*
X117492857Y-61133333D01*
X117540476Y-61228571D01*
X117540476Y-61323809D01*
X117064285Y-61419047D01*
X117969047Y-61752380D02*
X117969047Y-61085714D01*
X117969047Y-61276190D02*
X118016666Y-61180952D01*
X118064285Y-61133333D01*
X118159523Y-61085714D01*
X118254761Y-61085714D01*
X119350000Y-61085714D02*
X119350000Y-62085714D01*
X119350000Y-61133333D02*
X119445238Y-61085714D01*
X119635714Y-61085714D01*
X119730952Y-61133333D01*
X119778571Y-61180952D01*
X119826190Y-61276190D01*
X119826190Y-61561904D01*
X119778571Y-61657142D01*
X119730952Y-61704761D01*
X119635714Y-61752380D01*
X119445238Y-61752380D01*
X119350000Y-61704761D01*
X120683333Y-61752380D02*
X120683333Y-61228571D01*
X120635714Y-61133333D01*
X120540476Y-61085714D01*
X120350000Y-61085714D01*
X120254761Y-61133333D01*
X120683333Y-61704761D02*
X120588095Y-61752380D01*
X120350000Y-61752380D01*
X120254761Y-61704761D01*
X120207142Y-61609523D01*
X120207142Y-61514285D01*
X120254761Y-61419047D01*
X120350000Y-61371428D01*
X120588095Y-61371428D01*
X120683333Y-61323809D01*
X121588095Y-61752380D02*
X121588095Y-60752380D01*
X121588095Y-61704761D02*
X121492857Y-61752380D01*
X121302380Y-61752380D01*
X121207142Y-61704761D01*
X121159523Y-61657142D01*
X121111904Y-61561904D01*
X121111904Y-61276190D01*
X121159523Y-61180952D01*
X121207142Y-61133333D01*
X121302380Y-61085714D01*
X121492857Y-61085714D01*
X121588095Y-61133333D01*
D11*
X100726190Y-54420833D02*
X100488095Y-54587500D01*
X100726190Y-54706547D02*
X100226190Y-54706547D01*
X100226190Y-54516071D01*
X100250000Y-54468452D01*
X100273809Y-54444642D01*
X100321428Y-54420833D01*
X100392857Y-54420833D01*
X100440476Y-54444642D01*
X100464285Y-54468452D01*
X100488095Y-54516071D01*
X100488095Y-54706547D01*
X100726190Y-53944642D02*
X100726190Y-54230357D01*
X100726190Y-54087500D02*
X100226190Y-54087500D01*
X100297619Y-54135119D01*
X100345238Y-54182738D01*
X100369047Y-54230357D01*
D10*
X93788095Y-76952380D02*
X93788095Y-75952380D01*
X93788095Y-76428571D02*
X94359523Y-76428571D01*
X94359523Y-76952380D02*
X94359523Y-75952380D01*
X94740476Y-75952380D02*
X95359523Y-75952380D01*
X95026190Y-76333333D01*
X95169047Y-76333333D01*
X95264285Y-76380952D01*
X95311904Y-76428571D01*
X95359523Y-76523809D01*
X95359523Y-76761904D01*
X95311904Y-76857142D01*
X95264285Y-76904761D01*
X95169047Y-76952380D01*
X94883333Y-76952380D01*
X94788095Y-76904761D01*
X94740476Y-76857142D01*
X134288095Y-76952380D02*
X134288095Y-75952380D01*
X134288095Y-76428571D02*
X134859523Y-76428571D01*
X134859523Y-76952380D02*
X134859523Y-75952380D01*
X135288095Y-76047619D02*
X135335714Y-76000000D01*
X135430952Y-75952380D01*
X135669047Y-75952380D01*
X135764285Y-76000000D01*
X135811904Y-76047619D01*
X135859523Y-76142857D01*
X135859523Y-76238095D01*
X135811904Y-76380952D01*
X135240476Y-76952380D01*
X135859523Y-76952380D01*
X112866666Y-76052380D02*
X112866666Y-76766666D01*
X112819047Y-76909523D01*
X112723809Y-77004761D01*
X112580952Y-77052380D01*
X112485714Y-77052380D01*
X113866666Y-77052380D02*
X113295238Y-77052380D01*
X113580952Y-77052380D02*
X113580952Y-76052380D01*
X113485714Y-76195238D01*
X113390476Y-76290476D01*
X113295238Y-76338095D01*
X134238095Y-52702380D02*
X134238095Y-51702380D01*
X134238095Y-52178571D02*
X134809523Y-52178571D01*
X134809523Y-52702380D02*
X134809523Y-51702380D01*
X135809523Y-52702380D02*
X135238095Y-52702380D01*
X135523809Y-52702380D02*
X135523809Y-51702380D01*
X135428571Y-51845238D01*
X135333333Y-51940476D01*
X135238095Y-51988095D01*
D12*
X100695238Y-76530952D02*
X100695238Y-76854761D01*
X100714285Y-76892857D01*
X100733333Y-76911904D01*
X100771428Y-76930952D01*
X100847619Y-76930952D01*
X100885714Y-76911904D01*
X100904761Y-76892857D01*
X100923809Y-76854761D01*
X100923809Y-76530952D01*
X101323809Y-76930952D02*
X101095238Y-76930952D01*
X101209523Y-76930952D02*
X101209523Y-76530952D01*
X101171428Y-76588095D01*
X101133333Y-76626190D01*
X101095238Y-76645238D01*
D11*
X129428571Y-63083333D02*
X129452380Y-63107142D01*
X129476190Y-63178571D01*
X129476190Y-63226190D01*
X129452380Y-63297619D01*
X129404761Y-63345238D01*
X129357142Y-63369047D01*
X129261904Y-63392857D01*
X129190476Y-63392857D01*
X129095238Y-63369047D01*
X129047619Y-63345238D01*
X129000000Y-63297619D01*
X128976190Y-63226190D01*
X128976190Y-63178571D01*
X129000000Y-63107142D01*
X129023809Y-63083333D01*
X129476190Y-62607142D02*
X129476190Y-62892857D01*
X129476190Y-62750000D02*
X128976190Y-62750000D01*
X129047619Y-62797619D01*
X129095238Y-62845238D01*
X129119047Y-62892857D01*
X129226190Y-54420833D02*
X128988095Y-54587500D01*
X129226190Y-54706547D02*
X128726190Y-54706547D01*
X128726190Y-54516071D01*
X128750000Y-54468452D01*
X128773809Y-54444642D01*
X128821428Y-54420833D01*
X128892857Y-54420833D01*
X128940476Y-54444642D01*
X128964285Y-54468452D01*
X128988095Y-54516071D01*
X128988095Y-54706547D01*
X128726190Y-54254166D02*
X128726190Y-53944642D01*
X128916666Y-54111309D01*
X128916666Y-54039880D01*
X128940476Y-53992261D01*
X128964285Y-53968452D01*
X129011904Y-53944642D01*
X129130952Y-53944642D01*
X129178571Y-53968452D01*
X129202380Y-53992261D01*
X129226190Y-54039880D01*
X129226190Y-54182738D01*
X129202380Y-54230357D01*
X129178571Y-54254166D01*
D10*
X93788095Y-52702380D02*
X93788095Y-51702380D01*
X93788095Y-52178571D02*
X94359523Y-52178571D01*
X94359523Y-52702380D02*
X94359523Y-51702380D01*
X95264285Y-52035714D02*
X95264285Y-52702380D01*
X95026190Y-51654761D02*
X94788095Y-52369047D01*
X95407142Y-52369047D01*
D11*
X104928571Y-53895833D02*
X104952380Y-53919642D01*
X104976190Y-53991071D01*
X104976190Y-54038690D01*
X104952380Y-54110119D01*
X104904761Y-54157738D01*
X104857142Y-54181547D01*
X104761904Y-54205357D01*
X104690476Y-54205357D01*
X104595238Y-54181547D01*
X104547619Y-54157738D01*
X104500000Y-54110119D01*
X104476190Y-54038690D01*
X104476190Y-53991071D01*
X104500000Y-53919642D01*
X104523809Y-53895833D01*
X104476190Y-53729166D02*
X104476190Y-53419642D01*
X104666666Y-53586309D01*
X104666666Y-53514880D01*
X104690476Y-53467261D01*
X104714285Y-53443452D01*
X104761904Y-53419642D01*
X104880952Y-53419642D01*
X104928571Y-53443452D01*
X104952380Y-53467261D01*
X104976190Y-53514880D01*
X104976190Y-53657738D01*
X104952380Y-53705357D01*
X104928571Y-53729166D01*
D10*
X95742380Y-64583333D02*
X96456666Y-64583333D01*
X96599523Y-64630952D01*
X96694761Y-64726190D01*
X96742380Y-64869047D01*
X96742380Y-64964285D01*
X95742380Y-64202380D02*
X95742380Y-63583333D01*
X96123333Y-63916666D01*
X96123333Y-63773809D01*
X96170952Y-63678571D01*
X96218571Y-63630952D01*
X96313809Y-63583333D01*
X96551904Y-63583333D01*
X96647142Y-63630952D01*
X96694761Y-63678571D01*
X96742380Y-63773809D01*
X96742380Y-64059523D01*
X96694761Y-64154761D01*
X96647142Y-64202380D01*
D11*
X124178571Y-74833333D02*
X124202380Y-74857142D01*
X124226190Y-74928571D01*
X124226190Y-74976190D01*
X124202380Y-75047619D01*
X124154761Y-75095238D01*
X124107142Y-75119047D01*
X124011904Y-75142857D01*
X123940476Y-75142857D01*
X123845238Y-75119047D01*
X123797619Y-75095238D01*
X123750000Y-75047619D01*
X123726190Y-74976190D01*
X123726190Y-74928571D01*
X123750000Y-74857142D01*
X123773809Y-74833333D01*
X123773809Y-74642857D02*
X123750000Y-74619047D01*
X123726190Y-74571428D01*
X123726190Y-74452380D01*
X123750000Y-74404761D01*
X123773809Y-74380952D01*
X123821428Y-74357142D01*
X123869047Y-74357142D01*
X123940476Y-74380952D01*
X124226190Y-74666666D01*
X124226190Y-74357142D01*
X129226190Y-58083333D02*
X128988095Y-58250000D01*
X129226190Y-58369047D02*
X128726190Y-58369047D01*
X128726190Y-58178571D01*
X128750000Y-58130952D01*
X128773809Y-58107142D01*
X128821428Y-58083333D01*
X128892857Y-58083333D01*
X128940476Y-58107142D01*
X128964285Y-58130952D01*
X128988095Y-58178571D01*
X128988095Y-58369047D01*
X128773809Y-57892857D02*
X128750000Y-57869047D01*
X128726190Y-57821428D01*
X128726190Y-57702380D01*
X128750000Y-57654761D01*
X128773809Y-57630952D01*
X128821428Y-57607142D01*
X128869047Y-57607142D01*
X128940476Y-57630952D01*
X129226190Y-57916666D01*
X129226190Y-57607142D01*
X138177261Y-59275678D02*
X137857261Y-59275678D01*
X137857261Y-59153773D01*
X137872500Y-59123297D01*
X137887738Y-59108059D01*
X137918214Y-59092821D01*
X137963928Y-59092821D01*
X137994404Y-59108059D01*
X138009642Y-59123297D01*
X138024880Y-59153773D01*
X138024880Y-59275678D01*
X138146785Y-58772821D02*
X138162023Y-58788059D01*
X138177261Y-58833773D01*
X138177261Y-58864250D01*
X138162023Y-58909964D01*
X138131547Y-58940440D01*
X138101071Y-58955678D01*
X138040119Y-58970916D01*
X137994404Y-58970916D01*
X137933452Y-58955678D01*
X137902976Y-58940440D01*
X137872500Y-58909964D01*
X137857261Y-58864250D01*
X137857261Y-58833773D01*
X137872500Y-58788059D01*
X137887738Y-58772821D01*
X138009642Y-58529011D02*
X138024880Y-58483297D01*
X138040119Y-58468059D01*
X138070595Y-58452821D01*
X138116309Y-58452821D01*
X138146785Y-58468059D01*
X138162023Y-58483297D01*
X138177261Y-58513773D01*
X138177261Y-58635678D01*
X137857261Y-58635678D01*
X137857261Y-58529011D01*
X137872500Y-58498535D01*
X137887738Y-58483297D01*
X137918214Y-58468059D01*
X137948690Y-58468059D01*
X137979166Y-58483297D01*
X137994404Y-58498535D01*
X138009642Y-58529011D01*
X138009642Y-58635678D01*
X138055357Y-58315678D02*
X138055357Y-58071869D01*
X138009642Y-57919488D02*
X138009642Y-57812821D01*
X138177261Y-57767107D02*
X138177261Y-57919488D01*
X137857261Y-57919488D01*
X137857261Y-57767107D01*
X138177261Y-57629964D02*
X137857261Y-57629964D01*
X137857261Y-57553773D01*
X137872500Y-57508059D01*
X137902976Y-57477583D01*
X137933452Y-57462345D01*
X137994404Y-57447107D01*
X138040119Y-57447107D01*
X138101071Y-57462345D01*
X138131547Y-57477583D01*
X138162023Y-57508059D01*
X138177261Y-57553773D01*
X138177261Y-57629964D01*
X137872500Y-57142345D02*
X137857261Y-57172821D01*
X137857261Y-57218535D01*
X137872500Y-57264250D01*
X137902976Y-57294726D01*
X137933452Y-57309964D01*
X137994404Y-57325202D01*
X138040119Y-57325202D01*
X138101071Y-57309964D01*
X138131547Y-57294726D01*
X138162023Y-57264250D01*
X138177261Y-57218535D01*
X138177261Y-57188059D01*
X138162023Y-57142345D01*
X138146785Y-57127107D01*
X138040119Y-57127107D01*
X138040119Y-57188059D01*
X138009642Y-56989964D02*
X138009642Y-56883297D01*
X138177261Y-56837583D02*
X138177261Y-56989964D01*
X137857261Y-56989964D01*
X137857261Y-56837583D01*
D12*
X128030952Y-74804761D02*
X128354761Y-74804761D01*
X128392857Y-74785714D01*
X128411904Y-74766666D01*
X128430952Y-74728571D01*
X128430952Y-74652380D01*
X128411904Y-74614285D01*
X128392857Y-74595238D01*
X128354761Y-74576190D01*
X128030952Y-74576190D01*
X128069047Y-74404761D02*
X128050000Y-74385714D01*
X128030952Y-74347619D01*
X128030952Y-74252380D01*
X128050000Y-74214285D01*
X128069047Y-74195238D01*
X128107142Y-74176190D01*
X128145238Y-74176190D01*
X128202380Y-74195238D01*
X128430952Y-74423809D01*
X128430952Y-74176190D01*
D10*
X116238095Y-59702380D02*
X116238095Y-60511904D01*
X116285714Y-60607142D01*
X116333333Y-60654761D01*
X116428571Y-60702380D01*
X116619047Y-60702380D01*
X116714285Y-60654761D01*
X116761904Y-60607142D01*
X116809523Y-60511904D01*
X116809523Y-59702380D01*
X117190476Y-59702380D02*
X117809523Y-59702380D01*
X117476190Y-60083333D01*
X117619047Y-60083333D01*
X117714285Y-60130952D01*
X117761904Y-60178571D01*
X117809523Y-60273809D01*
X117809523Y-60511904D01*
X117761904Y-60607142D01*
X117714285Y-60654761D01*
X117619047Y-60702380D01*
X117333333Y-60702380D01*
X117238095Y-60654761D01*
X117190476Y-60607142D01*
D13*
X101125000Y-55337500D02*
X99875000Y-55337500D01*
X101125000Y-53337500D02*
X101125000Y-55337500D01*
X99875000Y-53337500D02*
X101125000Y-53337500D01*
X99875000Y-55337500D02*
X99875000Y-53337500D01*
X105580000Y-77235000D02*
X105580000Y-75330000D01*
X106215000Y-77870000D02*
X105580000Y-77235000D01*
X120820000Y-77870000D02*
X106215000Y-77870000D01*
X105580000Y-75330000D02*
X120820000Y-75330000D01*
X120820000Y-75330000D02*
X120820000Y-77870000D01*
X99750000Y-78000000D02*
X99750000Y-75500000D01*
X99750000Y-75500000D02*
X102250000Y-75500000D01*
X102250000Y-75500000D02*
X102250000Y-77500000D01*
X102250000Y-77500000D02*
X101750000Y-78000000D01*
X101750000Y-78000000D02*
X99750000Y-78000000D01*
X129875000Y-64000000D02*
X128625000Y-64000000D01*
X128625000Y-62000000D02*
X129875000Y-62000000D01*
X128625000Y-64000000D02*
X128625000Y-62000000D01*
X129875000Y-62000000D02*
X129875000Y-64000000D01*
X129625000Y-53337500D02*
X129625000Y-55337500D01*
X129625000Y-55337500D02*
X128375000Y-55337500D01*
X128375000Y-53337500D02*
X129625000Y-53337500D01*
X128375000Y-55337500D02*
X128375000Y-53337500D01*
X104125000Y-54812500D02*
X104125000Y-52812500D01*
X104125000Y-52812500D02*
X105375000Y-52812500D01*
X105375000Y-52812500D02*
X105375000Y-54812500D01*
X105375000Y-54812500D02*
X104125000Y-54812500D01*
X102260000Y-70800000D02*
X87300000Y-70800000D01*
X87000000Y-57050000D02*
X87000000Y-71450000D01*
X87300000Y-57700000D02*
X87300000Y-57050000D01*
X90720000Y-57700000D02*
X90720000Y-70800000D01*
X87300000Y-71450000D02*
X87300000Y-70800000D01*
X87300000Y-57700000D02*
X102260000Y-57700000D01*
X87000000Y-71450000D02*
X87300000Y-71450000D01*
X87300000Y-57050000D02*
X87000000Y-57050000D01*
X102260000Y-59750000D02*
X101260000Y-60750000D01*
X101260000Y-60750000D02*
X102260000Y-61750000D01*
X102260000Y-57700000D02*
X102260000Y-70800000D01*
X123375000Y-73750000D02*
X124625000Y-73750000D01*
X123375000Y-75750000D02*
X123375000Y-73750000D01*
X124625000Y-73750000D02*
X124625000Y-75750000D01*
X124625000Y-75750000D02*
X123375000Y-75750000D01*
X128375000Y-59000000D02*
X128375000Y-57000000D01*
X128375000Y-57000000D02*
X129625000Y-57000000D01*
X129625000Y-59000000D02*
X128375000Y-59000000D01*
X129625000Y-57000000D02*
X129625000Y-59000000D01*
D14*
X153362500Y-70344250D02*
X153362500Y-58344250D01*
X153362500Y-58344250D02*
X138312500Y-58344250D01*
X138312500Y-70344250D02*
X153362500Y-70344250D01*
X134562500Y-58344250D02*
X134562500Y-70344250D01*
X138312500Y-58344250D02*
X138312500Y-55144250D01*
X138312500Y-70344250D02*
X138312500Y-58344250D01*
X134562500Y-70344250D02*
X138312500Y-70344250D01*
X138312500Y-58344250D02*
X134562500Y-58344250D01*
D15*
X132262500Y-60844250D02*
G75*
G03*
X132262500Y-60844250I-100000J0D01*
G01*
D13*
X126800000Y-75300000D02*
X126800000Y-73700000D01*
X129700000Y-74100000D02*
X129700000Y-75300000D01*
X129300000Y-73700000D02*
X129700000Y-74100000D01*
X129700000Y-75300000D02*
X126800000Y-75300000D01*
X126800000Y-73700000D02*
X129300000Y-73700000D01*
X108500000Y-50730000D02*
X108000000Y-50230000D01*
X108000000Y-70010000D02*
X126000000Y-70010000D01*
X108000000Y-44505000D02*
X126000000Y-44505000D01*
X108000000Y-51230000D02*
X108500000Y-50730000D01*
X108000000Y-44505000D02*
X108000000Y-50230000D01*
X108000000Y-51230000D02*
X108000000Y-70010000D01*
X126000000Y-70010000D02*
X126000000Y-44505000D01*
M02*
