G04 #@! TF.GenerationSoftware,KiCad,Pcbnew,(5.99.0-11535-gf6cac49802)*
G04 #@! TF.CreationDate,2021-08-06T14:04:52-04:00*
G04 #@! TF.ProjectId,esphome-humitemp,65737068-6f6d-4652-9d68-756d6974656d,1*
G04 #@! TF.SameCoordinates,Original*
G04 #@! TF.FileFunction,Legend,Top*
G04 #@! TF.FilePolarity,Positive*
%FSLAX46Y46*%
G04 Gerber Fmt 4.6, Leading zero omitted, Abs format (unit mm)*
G04 Created by KiCad (PCBNEW (5.99.0-11535-gf6cac49802)) date 2021-08-06 14:04:52*
%MOMM*%
%LPD*%
G01*
G04 APERTURE LIST*
G04 Aperture macros list*
%AMRoundRect*
0 Rectangle with rounded corners*
0 $1 Rounding radius*
0 $2 $3 $4 $5 $6 $7 $8 $9 X,Y pos of 4 corners*
0 Add a 4 corners polygon primitive as box body*
4,1,4,$2,$3,$4,$5,$6,$7,$8,$9,$2,$3,0*
0 Add four circle primitives for the rounded corners*
1,1,$1+$1,$2,$3*
1,1,$1+$1,$4,$5*
1,1,$1+$1,$6,$7*
1,1,$1+$1,$8,$9*
0 Add four rect primitives between the rounded corners*
20,1,$1+$1,$2,$3,$4,$5,0*
20,1,$1+$1,$4,$5,$6,$7,0*
20,1,$1+$1,$6,$7,$8,$9,0*
20,1,$1+$1,$8,$9,$2,$3,0*%
%AMFreePoly0*
4,1,6,0.500000,-0.850000,-0.500000,-0.850000,-0.500000,0.550000,-0.200000,0.850000,0.500000,0.850000,0.500000,-0.850000,0.500000,-0.850000,$1*%
G04 Aperture macros list end*
%ADD10C,0.152400*%
%ADD11C,0.150000*%
%ADD12C,0.120000*%
%ADD13C,0.127000*%
%ADD14C,0.200000*%
%ADD15RoundRect,0.250000X-0.450000X0.262500X-0.450000X-0.262500X0.450000X-0.262500X0.450000X0.262500X0*%
%ADD16C,7.000000*%
%ADD17R,1.700000X1.700000*%
%ADD18O,1.700000X1.700000*%
%ADD19R,0.550000X0.250000*%
%ADD20FreePoly0,180.000000*%
%ADD21RoundRect,0.250000X-0.475000X0.250000X-0.475000X-0.250000X0.475000X-0.250000X0.475000X0.250000X0*%
%ADD22RoundRect,0.250000X0.450000X-0.262500X0.450000X0.262500X-0.450000X0.262500X-0.450000X-0.262500X0*%
%ADD23R,1.500000X1.600000*%
%ADD24C,1.600000*%
%ADD25C,3.000000*%
%ADD26R,1.508000X1.508000*%
%ADD27C,1.508000*%
%ADD28C,1.250000*%
%ADD29O,3.150000X1.575000*%
%ADD30RoundRect,0.150000X-0.150000X0.512500X-0.150000X-0.512500X0.150000X-0.512500X0.150000X0.512500X0*%
%ADD31R,2.000000X0.900000*%
%ADD32R,0.900000X2.000000*%
%ADD33R,5.000000X5.000000*%
G04 APERTURE END LIST*
D10*
X112200609Y-53554895D02*
X112200609Y-54135466D01*
X112161904Y-54251580D01*
X112084495Y-54328990D01*
X111968380Y-54367695D01*
X111890971Y-54367695D01*
X112974704Y-54367695D02*
X112587657Y-54367695D01*
X112587657Y-53554895D01*
X113710095Y-54290285D02*
X113671390Y-54328990D01*
X113555276Y-54367695D01*
X113477866Y-54367695D01*
X113361752Y-54328990D01*
X113284342Y-54251580D01*
X113245638Y-54174171D01*
X113206933Y-54019352D01*
X113206933Y-53903238D01*
X113245638Y-53748419D01*
X113284342Y-53671009D01*
X113361752Y-53593600D01*
X113477866Y-53554895D01*
X113555276Y-53554895D01*
X113671390Y-53593600D01*
X113710095Y-53632304D01*
X114290666Y-53554895D02*
X114290666Y-54135466D01*
X114251961Y-54251580D01*
X114174552Y-54328990D01*
X114058438Y-54367695D01*
X113981028Y-54367695D01*
X115064761Y-54367695D02*
X114677714Y-54367695D01*
X114677714Y-53554895D01*
X115800152Y-54290285D02*
X115761447Y-54328990D01*
X115645333Y-54367695D01*
X115567923Y-54367695D01*
X115451809Y-54328990D01*
X115374400Y-54251580D01*
X115335695Y-54174171D01*
X115296990Y-54019352D01*
X115296990Y-53903238D01*
X115335695Y-53748419D01*
X115374400Y-53671009D01*
X115451809Y-53593600D01*
X115567923Y-53554895D01*
X115645333Y-53554895D01*
X115761447Y-53593600D01*
X115800152Y-53632304D01*
X116380723Y-53554895D02*
X116380723Y-54135466D01*
X116342019Y-54251580D01*
X116264609Y-54328990D01*
X116148495Y-54367695D01*
X116071085Y-54367695D01*
X117154819Y-54367695D02*
X116767771Y-54367695D01*
X116767771Y-53554895D01*
X117890209Y-54290285D02*
X117851504Y-54328990D01*
X117735390Y-54367695D01*
X117657980Y-54367695D01*
X117541866Y-54328990D01*
X117464457Y-54251580D01*
X117425752Y-54174171D01*
X117387047Y-54019352D01*
X117387047Y-53903238D01*
X117425752Y-53748419D01*
X117464457Y-53671009D01*
X117541866Y-53593600D01*
X117657980Y-53554895D01*
X117735390Y-53554895D01*
X117851504Y-53593600D01*
X117890209Y-53632304D01*
X118470780Y-53554895D02*
X118470780Y-54135466D01*
X118432076Y-54251580D01*
X118354666Y-54328990D01*
X118238552Y-54367695D01*
X118161142Y-54367695D01*
X119244876Y-54367695D02*
X118857828Y-54367695D01*
X118857828Y-53554895D01*
X119980266Y-54290285D02*
X119941561Y-54328990D01*
X119825447Y-54367695D01*
X119748038Y-54367695D01*
X119631923Y-54328990D01*
X119554514Y-54251580D01*
X119515809Y-54174171D01*
X119477104Y-54019352D01*
X119477104Y-53903238D01*
X119515809Y-53748419D01*
X119554514Y-53671009D01*
X119631923Y-53593600D01*
X119748038Y-53554895D01*
X119825447Y-53554895D01*
X119941561Y-53593600D01*
X119980266Y-53632304D01*
X120560838Y-53554895D02*
X120560838Y-54135466D01*
X120522133Y-54251580D01*
X120444723Y-54328990D01*
X120328609Y-54367695D01*
X120251200Y-54367695D01*
X121334933Y-54367695D02*
X120947885Y-54367695D01*
X120947885Y-53554895D01*
X122070323Y-54290285D02*
X122031619Y-54328990D01*
X121915504Y-54367695D01*
X121838095Y-54367695D01*
X121721980Y-54328990D01*
X121644571Y-54251580D01*
X121605866Y-54174171D01*
X121567161Y-54019352D01*
X121567161Y-53903238D01*
X121605866Y-53748419D01*
X121644571Y-53671009D01*
X121721980Y-53593600D01*
X121838095Y-53554895D01*
X121915504Y-53554895D01*
X122031619Y-53593600D01*
X122070323Y-53632304D01*
D11*
X99202380Y-54504166D02*
X98726190Y-54837500D01*
X99202380Y-55075595D02*
X98202380Y-55075595D01*
X98202380Y-54694642D01*
X98250000Y-54599404D01*
X98297619Y-54551785D01*
X98392857Y-54504166D01*
X98535714Y-54504166D01*
X98630952Y-54551785D01*
X98678571Y-54599404D01*
X98726190Y-54694642D01*
X98726190Y-55075595D01*
X99202380Y-53551785D02*
X99202380Y-54123214D01*
X99202380Y-53837500D02*
X98202380Y-53837500D01*
X98345238Y-53932738D01*
X98440476Y-54027976D01*
X98488095Y-54123214D01*
X100238095Y-78452380D02*
X100238095Y-79261904D01*
X100285714Y-79357142D01*
X100333333Y-79404761D01*
X100428571Y-79452380D01*
X100619047Y-79452380D01*
X100714285Y-79404761D01*
X100761904Y-79357142D01*
X100809523Y-79261904D01*
X100809523Y-78452380D01*
X101809523Y-79452380D02*
X101238095Y-79452380D01*
X101523809Y-79452380D02*
X101523809Y-78452380D01*
X101428571Y-78595238D01*
X101333333Y-78690476D01*
X101238095Y-78738095D01*
X131287142Y-63166666D02*
X131334761Y-63214285D01*
X131382380Y-63357142D01*
X131382380Y-63452380D01*
X131334761Y-63595238D01*
X131239523Y-63690476D01*
X131144285Y-63738095D01*
X130953809Y-63785714D01*
X130810952Y-63785714D01*
X130620476Y-63738095D01*
X130525238Y-63690476D01*
X130430000Y-63595238D01*
X130382380Y-63452380D01*
X130382380Y-63357142D01*
X130430000Y-63214285D01*
X130477619Y-63166666D01*
X131382380Y-62214285D02*
X131382380Y-62785714D01*
X131382380Y-62500000D02*
X130382380Y-62500000D01*
X130525238Y-62595238D01*
X130620476Y-62690476D01*
X130668095Y-62785714D01*
X127802380Y-54504166D02*
X127326190Y-54837500D01*
X127802380Y-55075595D02*
X126802380Y-55075595D01*
X126802380Y-54694642D01*
X126850000Y-54599404D01*
X126897619Y-54551785D01*
X126992857Y-54504166D01*
X127135714Y-54504166D01*
X127230952Y-54551785D01*
X127278571Y-54599404D01*
X127326190Y-54694642D01*
X127326190Y-55075595D01*
X126802380Y-54170833D02*
X126802380Y-53551785D01*
X127183333Y-53885119D01*
X127183333Y-53742261D01*
X127230952Y-53647023D01*
X127278571Y-53599404D01*
X127373809Y-53551785D01*
X127611904Y-53551785D01*
X127707142Y-53599404D01*
X127754761Y-53647023D01*
X127802380Y-53742261D01*
X127802380Y-54027976D01*
X127754761Y-54123214D01*
X127707142Y-54170833D01*
X106787142Y-53979166D02*
X106834761Y-54026785D01*
X106882380Y-54169642D01*
X106882380Y-54264880D01*
X106834761Y-54407738D01*
X106739523Y-54502976D01*
X106644285Y-54550595D01*
X106453809Y-54598214D01*
X106310952Y-54598214D01*
X106120476Y-54550595D01*
X106025238Y-54502976D01*
X105930000Y-54407738D01*
X105882380Y-54264880D01*
X105882380Y-54169642D01*
X105930000Y-54026785D01*
X105977619Y-53979166D01*
X105882380Y-53645833D02*
X105882380Y-53026785D01*
X106263333Y-53360119D01*
X106263333Y-53217261D01*
X106310952Y-53122023D01*
X106358571Y-53074404D01*
X106453809Y-53026785D01*
X106691904Y-53026785D01*
X106787142Y-53074404D01*
X106834761Y-53122023D01*
X106882380Y-53217261D01*
X106882380Y-53502976D01*
X106834761Y-53598214D01*
X106787142Y-53645833D01*
X95452380Y-64583333D02*
X96166666Y-64583333D01*
X96309523Y-64630952D01*
X96404761Y-64726190D01*
X96452380Y-64869047D01*
X96452380Y-64964285D01*
X95452380Y-64202380D02*
X95452380Y-63583333D01*
X95833333Y-63916666D01*
X95833333Y-63773809D01*
X95880952Y-63678571D01*
X95928571Y-63630952D01*
X96023809Y-63583333D01*
X96261904Y-63583333D01*
X96357142Y-63630952D01*
X96404761Y-63678571D01*
X96452380Y-63773809D01*
X96452380Y-64059523D01*
X96404761Y-64154761D01*
X96357142Y-64202380D01*
X126037142Y-74916666D02*
X126084761Y-74964285D01*
X126132380Y-75107142D01*
X126132380Y-75202380D01*
X126084761Y-75345238D01*
X125989523Y-75440476D01*
X125894285Y-75488095D01*
X125703809Y-75535714D01*
X125560952Y-75535714D01*
X125370476Y-75488095D01*
X125275238Y-75440476D01*
X125180000Y-75345238D01*
X125132380Y-75202380D01*
X125132380Y-75107142D01*
X125180000Y-74964285D01*
X125227619Y-74916666D01*
X125227619Y-74535714D02*
X125180000Y-74488095D01*
X125132380Y-74392857D01*
X125132380Y-74154761D01*
X125180000Y-74059523D01*
X125227619Y-74011904D01*
X125322857Y-73964285D01*
X125418095Y-73964285D01*
X125560952Y-74011904D01*
X126132380Y-74583333D01*
X126132380Y-73964285D01*
X127802380Y-58166666D02*
X127326190Y-58500000D01*
X127802380Y-58738095D02*
X126802380Y-58738095D01*
X126802380Y-58357142D01*
X126850000Y-58261904D01*
X126897619Y-58214285D01*
X126992857Y-58166666D01*
X127135714Y-58166666D01*
X127230952Y-58214285D01*
X127278571Y-58261904D01*
X127326190Y-58357142D01*
X127326190Y-58738095D01*
X126897619Y-57785714D02*
X126850000Y-57738095D01*
X126802380Y-57642857D01*
X126802380Y-57404761D01*
X126850000Y-57309523D01*
X126897619Y-57261904D01*
X126992857Y-57214285D01*
X127088095Y-57214285D01*
X127230952Y-57261904D01*
X127802380Y-57833333D01*
X127802380Y-57214285D01*
X130779880Y-68402583D02*
X131494166Y-68402583D01*
X131637023Y-68450202D01*
X131732261Y-68545440D01*
X131779880Y-68688297D01*
X131779880Y-68783535D01*
X130875119Y-67974011D02*
X130827500Y-67926392D01*
X130779880Y-67831154D01*
X130779880Y-67593059D01*
X130827500Y-67497821D01*
X130875119Y-67450202D01*
X130970357Y-67402583D01*
X131065595Y-67402583D01*
X131208452Y-67450202D01*
X131779880Y-68021630D01*
X131779880Y-67402583D01*
X130102380Y-75261904D02*
X130911904Y-75261904D01*
X131007142Y-75214285D01*
X131054761Y-75166666D01*
X131102380Y-75071428D01*
X131102380Y-74880952D01*
X131054761Y-74785714D01*
X131007142Y-74738095D01*
X130911904Y-74690476D01*
X130102380Y-74690476D01*
X130197619Y-74261904D02*
X130150000Y-74214285D01*
X130102380Y-74119047D01*
X130102380Y-73880952D01*
X130150000Y-73785714D01*
X130197619Y-73738095D01*
X130292857Y-73690476D01*
X130388095Y-73690476D01*
X130530952Y-73738095D01*
X131102380Y-74309523D01*
X131102380Y-73690476D01*
D12*
X99765000Y-54110436D02*
X99765000Y-54564564D01*
X101235000Y-54110436D02*
X101235000Y-54564564D01*
X120880000Y-77930000D02*
X120880000Y-75270000D01*
X108120000Y-77930000D02*
X120880000Y-77930000D01*
X106850000Y-77930000D02*
X105520000Y-77930000D01*
X108120000Y-77930000D02*
X108120000Y-75270000D01*
X105520000Y-77930000D02*
X105520000Y-76600000D01*
X108120000Y-75270000D02*
X120880000Y-75270000D01*
X102090000Y-78160000D02*
X100350000Y-78160000D01*
X101650000Y-75340000D02*
X100350000Y-75340000D01*
X128515000Y-62738748D02*
X128515000Y-63261252D01*
X129985000Y-62738748D02*
X129985000Y-63261252D01*
X129735000Y-54564564D02*
X129735000Y-54110436D01*
X128265000Y-54564564D02*
X128265000Y-54110436D01*
X105485000Y-53551248D02*
X105485000Y-54073752D01*
X104015000Y-53551248D02*
X104015000Y-54073752D01*
X87410000Y-56940000D02*
X86890000Y-56940000D01*
X86890000Y-71560000D02*
X87410000Y-71560000D01*
X86890000Y-56940000D02*
X86890000Y-71560000D01*
X102370000Y-70910000D02*
X99040000Y-70910000D01*
X102590000Y-59850000D02*
X102590000Y-61650000D01*
X102370000Y-57590000D02*
X99040000Y-57590000D01*
X87410000Y-71560000D02*
X87410000Y-70910000D01*
X87410000Y-57590000D02*
X87410000Y-56940000D01*
X95520000Y-70910000D02*
X87410000Y-70910000D01*
X102370000Y-57590000D02*
X102370000Y-70910000D01*
X87410000Y-57590000D02*
X95520000Y-57590000D01*
X124735000Y-74488748D02*
X124735000Y-75011252D01*
X123265000Y-74488748D02*
X123265000Y-75011252D01*
X128265000Y-58227064D02*
X128265000Y-57772936D01*
X129735000Y-58227064D02*
X129735000Y-57772936D01*
D13*
X137562500Y-70344250D02*
X138312500Y-70344250D01*
X153362500Y-70344250D02*
X153362500Y-58344250D01*
X138312500Y-70344250D02*
X153362500Y-70344250D01*
X138312500Y-58344250D02*
X137562500Y-58344250D01*
X138312500Y-70344250D02*
X138312500Y-58344250D01*
X153362500Y-58344250D02*
X138312500Y-58344250D01*
D14*
X132262500Y-60844250D02*
G75*
G03*
X132262500Y-60844250I-100000J0D01*
G01*
D12*
X126690000Y-74500000D02*
X126690000Y-75300000D01*
X126690000Y-74500000D02*
X126690000Y-73700000D01*
X129810000Y-74500000D02*
X129810000Y-75300000D01*
X129810000Y-74500000D02*
X129810000Y-72700000D01*
X107880000Y-44385000D02*
X107880000Y-50805000D01*
X126120000Y-44385000D02*
X126120000Y-50805000D01*
X126120000Y-70130000D02*
X125120000Y-70130000D01*
X126120000Y-69350000D02*
X126120000Y-70130000D01*
X107880000Y-70130000D02*
X108880000Y-70130000D01*
X107880000Y-69350000D02*
X107880000Y-70130000D01*
X107880000Y-50805000D02*
X107500000Y-50805000D01*
X107880000Y-44385000D02*
X126120000Y-44385000D01*
%LPC*%
D15*
X100500000Y-53425000D03*
X100500000Y-55250000D03*
D16*
X94250000Y-76500000D03*
X134750000Y-76500000D03*
D17*
X106850000Y-76600000D03*
D18*
X109390000Y-76600000D03*
X111930000Y-76600000D03*
X114470000Y-76600000D03*
X117010000Y-76600000D03*
X119550000Y-76600000D03*
D16*
X134750000Y-52500000D03*
D19*
X102175000Y-77500000D03*
X102175000Y-77000000D03*
X102175000Y-76500000D03*
X102175000Y-76000000D03*
X99825000Y-76000000D03*
X99825000Y-76500000D03*
X99825000Y-77000000D03*
X99825000Y-77500000D03*
D20*
X101000000Y-76750000D03*
D21*
X129250000Y-62050000D03*
X129250000Y-63950000D03*
D22*
X129000000Y-55250000D03*
X129000000Y-53425000D03*
D16*
X94250000Y-52250000D03*
D21*
X104750000Y-52862500D03*
X104750000Y-54762500D03*
D23*
X99990000Y-60750000D03*
D24*
X99990000Y-63250000D03*
X99990000Y-65250000D03*
X99990000Y-67750000D03*
D25*
X97280000Y-70820000D03*
X97280000Y-57680000D03*
D21*
X124000000Y-73800000D03*
X124000000Y-75700000D03*
D22*
X129000000Y-58912500D03*
X129000000Y-57087500D03*
D26*
X133462500Y-60844250D03*
D27*
X133462500Y-63344250D03*
X133462500Y-65344250D03*
X133462500Y-67844250D03*
D28*
X135562500Y-62094250D03*
X135562500Y-66594250D03*
D29*
X135562500Y-58644250D03*
X135562500Y-70044250D03*
D30*
X129200000Y-73362500D03*
X128250000Y-73362500D03*
X127300000Y-73362500D03*
X127300000Y-75637500D03*
X129200000Y-75637500D03*
D31*
X108500000Y-51995000D03*
X108500000Y-53265000D03*
X108500000Y-54535000D03*
X108500000Y-55805000D03*
X108500000Y-57075000D03*
X108500000Y-58345000D03*
X108500000Y-59615000D03*
X108500000Y-60885000D03*
X108500000Y-62155000D03*
X108500000Y-63425000D03*
X108500000Y-64695000D03*
X108500000Y-65965000D03*
X108500000Y-67235000D03*
X108500000Y-68505000D03*
D32*
X111285000Y-69505000D03*
X112555000Y-69505000D03*
X113825000Y-69505000D03*
X115095000Y-69505000D03*
X116365000Y-69505000D03*
X117635000Y-69505000D03*
X118905000Y-69505000D03*
X120175000Y-69505000D03*
X121445000Y-69505000D03*
X122715000Y-69505000D03*
D31*
X125500000Y-68505000D03*
X125500000Y-67235000D03*
X125500000Y-65965000D03*
X125500000Y-64695000D03*
X125500000Y-63425000D03*
X125500000Y-62155000D03*
X125500000Y-60885000D03*
X125500000Y-59615000D03*
X125500000Y-58345000D03*
X125500000Y-57075000D03*
X125500000Y-55805000D03*
X125500000Y-54535000D03*
X125500000Y-53265000D03*
X125500000Y-51995000D03*
D33*
X116000000Y-59495000D03*
M02*
