G04 #@! TF.GenerationSoftware,KiCad,Pcbnew,(5.99.0-11535-gf6cac49802)*
G04 #@! TF.CreationDate,2021-08-06T14:04:52-04:00*
G04 #@! TF.ProjectId,esphome-humitemp,65737068-6f6d-4652-9d68-756d6974656d,1*
G04 #@! TF.SameCoordinates,Original*
G04 #@! TF.FileFunction,Soldermask,Top*
G04 #@! TF.FilePolarity,Negative*
%FSLAX46Y46*%
G04 Gerber Fmt 4.6, Leading zero omitted, Abs format (unit mm)*
G04 Created by KiCad (PCBNEW (5.99.0-11535-gf6cac49802)) date 2021-08-06 14:04:52*
%MOMM*%
%LPD*%
G01*
G04 APERTURE LIST*
G04 Aperture macros list*
%AMRoundRect*
0 Rectangle with rounded corners*
0 $1 Rounding radius*
0 $2 $3 $4 $5 $6 $7 $8 $9 X,Y pos of 4 corners*
0 Add a 4 corners polygon primitive as box body*
4,1,4,$2,$3,$4,$5,$6,$7,$8,$9,$2,$3,0*
0 Add four circle primitives for the rounded corners*
1,1,$1+$1,$2,$3*
1,1,$1+$1,$4,$5*
1,1,$1+$1,$6,$7*
1,1,$1+$1,$8,$9*
0 Add four rect primitives between the rounded corners*
20,1,$1+$1,$2,$3,$4,$5,0*
20,1,$1+$1,$4,$5,$6,$7,0*
20,1,$1+$1,$6,$7,$8,$9,0*
20,1,$1+$1,$8,$9,$2,$3,0*%
%AMFreePoly0*
4,1,6,0.500000,-0.850000,-0.500000,-0.850000,-0.500000,0.550000,-0.200000,0.850000,0.500000,0.850000,0.500000,-0.850000,0.500000,-0.850000,$1*%
G04 Aperture macros list end*
%ADD10RoundRect,0.250000X-0.450000X0.262500X-0.450000X-0.262500X0.450000X-0.262500X0.450000X0.262500X0*%
%ADD11C,7.000000*%
%ADD12R,1.700000X1.700000*%
%ADD13O,1.700000X1.700000*%
%ADD14R,0.550000X0.250000*%
%ADD15FreePoly0,180.000000*%
%ADD16RoundRect,0.250000X-0.475000X0.250000X-0.475000X-0.250000X0.475000X-0.250000X0.475000X0.250000X0*%
%ADD17RoundRect,0.250000X0.450000X-0.262500X0.450000X0.262500X-0.450000X0.262500X-0.450000X-0.262500X0*%
%ADD18R,1.500000X1.600000*%
%ADD19C,1.600000*%
%ADD20C,3.000000*%
%ADD21R,1.508000X1.508000*%
%ADD22C,1.508000*%
%ADD23C,1.250000*%
%ADD24O,3.150000X1.575000*%
%ADD25RoundRect,0.150000X-0.150000X0.512500X-0.150000X-0.512500X0.150000X-0.512500X0.150000X0.512500X0*%
%ADD26R,2.000000X0.900000*%
%ADD27R,0.900000X2.000000*%
%ADD28R,5.000000X5.000000*%
G04 APERTURE END LIST*
D10*
X100500000Y-53425000D03*
X100500000Y-55250000D03*
D11*
X94250000Y-76500000D03*
X134750000Y-76500000D03*
D12*
X106850000Y-76600000D03*
D13*
X109390000Y-76600000D03*
X111930000Y-76600000D03*
X114470000Y-76600000D03*
X117010000Y-76600000D03*
X119550000Y-76600000D03*
D11*
X134750000Y-52500000D03*
D14*
X102175000Y-77500000D03*
X102175000Y-77000000D03*
X102175000Y-76500000D03*
X102175000Y-76000000D03*
X99825000Y-76000000D03*
X99825000Y-76500000D03*
X99825000Y-77000000D03*
X99825000Y-77500000D03*
D15*
X101000000Y-76750000D03*
D16*
X129250000Y-62050000D03*
X129250000Y-63950000D03*
D17*
X129000000Y-55250000D03*
X129000000Y-53425000D03*
D11*
X94250000Y-52250000D03*
D16*
X104750000Y-52862500D03*
X104750000Y-54762500D03*
D18*
X99990000Y-60750000D03*
D19*
X99990000Y-63250000D03*
X99990000Y-65250000D03*
X99990000Y-67750000D03*
D20*
X97280000Y-70820000D03*
X97280000Y-57680000D03*
D16*
X124000000Y-73800000D03*
X124000000Y-75700000D03*
D17*
X129000000Y-58912500D03*
X129000000Y-57087500D03*
D21*
X133462500Y-60844250D03*
D22*
X133462500Y-63344250D03*
X133462500Y-65344250D03*
X133462500Y-67844250D03*
D23*
X135562500Y-62094250D03*
X135562500Y-66594250D03*
D24*
X135562500Y-58644250D03*
X135562500Y-70044250D03*
D25*
X129200000Y-73362500D03*
X128250000Y-73362500D03*
X127300000Y-73362500D03*
X127300000Y-75637500D03*
X129200000Y-75637500D03*
D26*
X108500000Y-51995000D03*
X108500000Y-53265000D03*
X108500000Y-54535000D03*
X108500000Y-55805000D03*
X108500000Y-57075000D03*
X108500000Y-58345000D03*
X108500000Y-59615000D03*
X108500000Y-60885000D03*
X108500000Y-62155000D03*
X108500000Y-63425000D03*
X108500000Y-64695000D03*
X108500000Y-65965000D03*
X108500000Y-67235000D03*
X108500000Y-68505000D03*
D27*
X111285000Y-69505000D03*
X112555000Y-69505000D03*
X113825000Y-69505000D03*
X115095000Y-69505000D03*
X116365000Y-69505000D03*
X117635000Y-69505000D03*
X118905000Y-69505000D03*
X120175000Y-69505000D03*
X121445000Y-69505000D03*
X122715000Y-69505000D03*
D26*
X125500000Y-68505000D03*
X125500000Y-67235000D03*
X125500000Y-65965000D03*
X125500000Y-64695000D03*
X125500000Y-63425000D03*
X125500000Y-62155000D03*
X125500000Y-60885000D03*
X125500000Y-59615000D03*
X125500000Y-58345000D03*
X125500000Y-57075000D03*
X125500000Y-55805000D03*
X125500000Y-54535000D03*
X125500000Y-53265000D03*
X125500000Y-51995000D03*
D28*
X116000000Y-59495000D03*
M02*
